<svg width="48" height="48" viewBox="0 0 48 48" fill="none" xmlns="http://www.w3.org/2000/svg">
<path d="M44.3021 29.9713C43.6418 29.9713 43.1066 30.5064 43.1066 31.1667V41.781C43.1043 43.7609 41.5002 45.3655 39.5203 45.3673H5.97724C3.99728 45.3655 2.39323 43.7609 2.39089 41.781V10.6288C2.39323 8.64935 3.99728 7.04484 5.97724 7.04251H16.5915C17.2518 7.04251 17.7869 6.50736 17.7869 5.84706C17.7869 5.18723 17.2518 4.65161 16.5915 4.65161H5.97724C2.67762 4.65535 0.00373577 7.32923 0 10.6288V41.7815C0.00373577 45.0811 2.67762 47.755 5.97724 47.7587H39.5203C42.8199 47.755 45.4938 45.0811 45.4975 41.7815V31.1667C45.4975 30.5064 44.9624 29.9713 44.3021 29.9713V29.9713Z" fill="white"/>
<path d="M45.024 1.57568C42.923 -0.525226 39.517 -0.525226 37.4161 1.57568L16.0885 22.9032C15.9424 23.0494 15.8368 23.2306 15.7817 23.4295L12.9771 33.5548C12.8618 33.97 12.979 34.4145 13.2834 34.7195C13.5884 35.0239 14.0329 35.1411 14.4481 35.0263L24.5734 32.2212C24.7723 32.1661 24.9535 32.0605 25.0997 31.9144L46.4267 10.5864C48.5244 8.48406 48.5244 5.08077 46.4267 2.97846L45.024 1.57568ZM18.6933 23.6802L36.1482 6.22485L41.7776 11.8542L24.3222 29.3096L18.6933 23.6802ZM17.5688 25.9367L22.0662 30.4345L15.8452 32.1581L17.5688 25.9367ZM44.7363 8.89593L43.4685 10.1638L37.8387 4.53394L39.107 3.26612C40.2739 2.09915 42.1661 2.09915 43.333 3.26612L44.7363 4.6689C45.9014 5.83726 45.9014 7.72803 44.7363 8.89593V8.89593Z" fill="white"/>
</svg>
