<svg width="845" height="614" viewBox="0 0 845 614" fill="none" xmlns="http://www.w3.org/2000/svg">
<path d="M785.217 574.269H86.1765C84.0645 573.105 -39.3513 504.661 50.2458 441.481C111.347 398.39 67.3824 367.101 60.7369 347.377C53.107 324.728 37.2945 215.124 119.123 202.315C278.257 177.401 146.111 53.7511 290.818 28.6006C323.479 22.9253 358.982 19.9511 393.78 19.9511C501.582 19.9511 602.553 48.5086 590.803 113.748C579.594 175.983 662.927 150.63 715.325 173.89C795.573 209.516 712.851 319.274 764.944 351.011C813.342 380.496 843.158 525.935 785.217 574.269" fill="black" fill-opacity="0.32"/>
<path d="M707.105 205.121C707.105 205.121 695.662 230.032 687.961 240.557C680.26 251.079 672.924 261.143 666.782 290.351C660.637 319.56 661.69 322.494 660.008 330.038C658.326 337.583 647.384 368.148 647.319 373.753C647.255 379.357 625.201 411.263 619.551 426.199C613.903 441.132 603.894 462.464 604.458 473.323L606.972 472.685C606.972 472.685 609.02 447.362 626.454 421.77C643.891 396.177 641.395 391.346 661.196 378.197C680.993 365.051 693.781 328.734 693.781 328.734C693.781 328.734 713.922 289.286 712.986 268.777C712.049 248.27 717.393 229.777 707.105 205.121Z" fill="#09738A"/>
<path d="M680.307 166.802C680.307 166.802 679.641 183.168 674.361 192.889C669.085 202.613 664.536 208.515 663.579 219.034C662.621 229.553 659.306 256.668 644.585 269.909C629.864 283.144 627.986 322.813 616.78 334.811C605.576 346.812 604.112 355.437 606.181 376.017C608.25 396.598 615.279 425.118 599.026 462.347L595.352 453.086C595.352 453.086 606.979 422.46 604.165 404.526C601.35 386.594 591.556 359.495 595.141 346.499C598.726 333.503 585.392 330.965 593.422 311.309C601.448 291.652 598.152 284.823 609.082 267.828C609.082 267.828 610.202 267.033 613.075 252.653C615.948 238.273 639.112 211.919 649.788 202.926C660.46 193.933 675.844 179.519 680.307 166.802" fill="#09738A"/>
<path d="M636.829 247.827C636.829 247.827 624.045 269.715 623.864 283.801C623.683 297.889 625.208 309.347 618.741 328.635C612.274 347.926 625.11 360.121 621.409 370.771C617.71 381.422 617.425 394.031 617.535 403.592C617.649 413.157 602.894 444.802 600.647 460.824C598.404 476.849 601.273 476.901 601.273 476.901C601.273 476.901 603.72 455.747 607.114 448.752C610.509 441.757 620.832 417.638 623.244 408.307C625.654 398.976 632.191 392.988 637.83 377.186C643.468 361.382 651.485 348.073 650.875 325.649C650.261 303.227 659.285 279.559 636.829 247.827" fill="#2D8396"/>
<path d="M609.766 462.218C609.766 462.218 615.727 434.443 640.862 431.669C666 428.897 680.767 433.866 698.523 413.575C716.283 393.28 726.596 361.079 732.268 355.536C732.268 355.536 723.345 350.944 708.514 364.811C693.68 378.679 683.259 389.201 674.671 397.273C666.086 405.349 659.113 400.085 650.046 405.407C642.446 409.867 632.621 422.761 628.293 429.514C626.887 431.708 625.22 433.722 623.305 435.487C621.565 437.095 619.49 439.066 618.161 440.514C615.5 443.415 607.823 462.319 607.823 462.319L609.766 462.218" fill="#2D8396"/>
<path d="M600.905 457.319C600.905 457.319 609.766 423.351 603.83 406.727C597.897 390.106 579.321 377.804 580.067 367.362C580.812 356.92 592.74 328.697 583.016 307.687C583.016 307.687 579.321 326.429 575.677 330.597C572.031 334.768 547.019 351.579 551.454 373.786C555.886 395.99 580.205 401.18 586.193 407.718C592.181 414.253 600.269 414.247 600.318 418.593C600.371 422.939 601.948 438.743 599.262 454.339L600.905 457.319" fill="#2D8396"/>
<path d="M610.592 434.587L623.038 398.737C623.038 398.737 630.349 369.9 634.585 345.855C638.824 321.809 636.829 247.828 636.829 247.828C636.829 247.828 624.045 269.716 623.864 283.801C623.683 297.889 625.208 309.347 618.741 328.635C612.274 347.926 625.11 360.121 621.408 370.772C617.71 381.423 617.424 394.032 617.535 403.593C617.648 413.157 602.894 444.802 600.647 460.824C599.419 469.603 599.723 473.584 600.251 475.392C598.256 461.377 610.592 434.587 610.592 434.587" fill="#10839C"/>
<path d="M671.893 413.231C660.791 415.447 650.865 414.692 637.685 424.502C624.505 434.311 616.755 444.787 616.755 444.787C616.755 444.787 610.831 455.373 608.382 460.957C608.029 461.81 607.823 462.319 607.823 462.319L609.766 462.218C609.766 462.218 615.727 434.443 640.862 431.669C666 428.897 680.767 433.866 698.523 413.575C716.283 393.28 726.596 361.079 732.268 355.536C732.268 355.536 713.382 370.229 701.709 383.234C690.04 396.236 682.998 411.012 671.893 413.231" fill="#10839C"/>
<path d="M575.677 330.597C572.031 334.768 547.019 351.579 551.454 373.786C555.886 395.99 580.205 401.181 586.193 407.718C592.181 414.253 600.269 414.247 600.318 418.593C600.371 422.939 601.948 438.744 599.262 454.339L599.981 455.641C601.291 449.554 603.111 440.285 603.707 433.246C604.674 421.819 602.823 417.086 599.149 407.829C595.475 398.569 572.648 379.71 566.927 369.796C561.208 359.879 577.958 343.307 581.675 335.306C585.392 327.304 583.016 307.687 583.016 307.687C583.016 307.687 579.321 326.429 575.677 330.597" fill="#10839C"/>
<path d="M635.018 440.907L638.925 431.463C641.957 424.517 649.714 421.202 656.251 424.057C672.731 431.248 679.892 451.267 672.252 468.771L666.666 481.568C664.22 487.172 665.07 493.342 668.372 497.688C671.368 501.638 671.856 507.129 669.778 511.89L666.835 518.636C663.646 525.938 657.442 531.35 650.085 533.581C645.782 534.886 641.982 538.115 639.971 542.719L635.803 552.271C631.193 562.829 619.397 567.872 609.456 563.535L603.784 561.058C593.842 556.718 589.52 544.64 594.13 534.078C601.586 521.451 600.99 512.028 598.348 505.635C594.465 496.236 594.511 485.423 598.713 475.797L599.302 474.447C603.734 464.287 612.301 456.703 622.498 453.455C627 452.022 631.693 448.52 635.018 440.907" fill="#5B64B3"/>
<path d="M564.661 574.269C572.657 563.9 616.503 508.363 645.091 499.106C676.651 488.891 646.905 529.468 646.905 529.468C646.905 529.468 702.888 468.252 723.434 473.771C742.265 478.829 723.434 516.773 723.434 516.773C723.434 516.773 744.643 495.76 770.365 495.76C795.396 495.76 752.875 570.278 750.58 574.269H564.661Z" fill="#147CA4"/>
<path d="M733.373 454.121C710.5 489.846 693.805 529.53 684.263 571.688L682.694 571.267C692.197 529.99 708.781 490.377 731.614 454.692C736.921 446.402 742.652 436.561 752.59 433.326C752.781 433.265 752.854 433.556 752.67 433.624C743.594 437.043 738.339 446.368 733.373 454.121Z" fill="#2D8396"/>
<path d="M689.775 573.167C715.337 538.409 746.408 506.282 783.358 478.344C783.729 478.065 784.226 478.71 783.855 478.995C748.812 505.932 717.808 537.74 691.718 573.686L689.775 573.167" fill="#2D8396"/>
<path d="M735.463 431.969C736.052 432.835 738.305 435.094 738.968 438.059C739.858 440.873 739.155 444.397 739.079 444.274C738.91 444.345 741.688 441.997 742.556 438.261C743.68 434.676 742.894 429.707 741.494 428.062C739.082 424.339 734.864 423.961 734.045 425.766C733.176 427.558 734.278 429.999 735.463 431.969Z" fill="#2D8396"/>
<path d="M740.936 463.854C740.082 463.249 737.866 460.95 734.914 460.229C732.117 459.287 728.581 459.919 728.701 459.996C728.631 460.164 731.031 457.433 734.785 456.641C738.388 455.588 743.342 456.472 744.96 457.902C748.634 460.388 748.928 464.612 747.108 465.395C745.297 466.226 742.882 465.078 740.936 463.854Z" fill="#2D8396"/>
<path d="M732.676 477.829C731.823 477.224 729.61 474.925 726.657 474.207C723.861 473.262 720.322 473.894 720.445 473.971C720.371 474.14 722.774 471.408 726.525 470.616C730.131 469.563 735.085 470.447 736.703 471.878C740.377 474.364 740.672 478.587 738.852 479.37C737.041 480.205 734.622 479.054 732.676 477.829" fill="#2D8396"/>
<path d="M762.133 510.247C761.28 509.639 759.067 507.34 756.111 506.622C753.315 505.677 749.779 506.309 749.902 506.386C749.828 506.555 752.228 503.823 755.982 503.031C759.585 501.978 764.539 502.862 766.157 504.293C769.831 506.779 770.126 511.002 768.306 511.785C766.495 512.62 764.079 511.469 762.133 510.247Z" fill="#2D8396"/>
<path d="M777.182 496.988C776.329 496.383 774.112 494.084 771.16 493.363C768.364 492.417 764.828 493.053 764.947 493.129C764.874 493.298 767.277 490.566 771.031 489.771C774.634 488.722 779.588 489.606 781.206 491.033C784.88 493.519 785.174 497.743 783.354 498.528C781.543 499.36 779.128 498.212 777.182 496.988Z" fill="#2D8396"/>
<path d="M723.91 447.783C724.628 448.544 727.21 450.42 728.33 453.246C729.653 455.883 729.515 459.474 729.42 459.364C729.263 459.462 731.636 456.703 731.906 452.878C732.449 449.161 730.89 444.379 729.251 442.973C726.28 439.677 722.056 439.971 721.531 441.88C720.957 443.79 722.431 446.024 723.91 447.783Z" fill="#2D8396"/>
<path d="M711.764 463.63C712.786 464.174 716.359 465.156 718.155 467.829C720.186 470.205 720.444 474.272 720.309 474.189C720.119 474.364 722.854 470.266 722.734 465.88C722.989 461.5 720.386 456.832 718.093 455.969C713.848 453.566 708.415 455.708 707.97 458.069C707.458 460.444 709.637 462.304 711.764 463.63Z" fill="#2D8396"/>
<path d="M698.987 487.636C700.086 487.998 703.769 488.366 705.988 490.699C708.391 492.7 709.331 496.666 709.183 496.608C709.024 496.81 711.031 492.314 710.178 488.01C709.69 483.649 706.341 479.484 703.935 479.017C699.346 477.366 694.352 480.389 694.309 482.789C694.202 485.217 696.663 486.687 698.987 487.636" fill="#2D8396"/>
<path d="M736.804 504.358C737.606 504.858 740.454 505.858 741.761 508.136C743.278 510.183 743.256 513.507 743.152 513.431C742.986 513.563 745.445 510.386 745.598 506.813C746.056 503.265 744.205 499.318 742.388 498.483C739.07 496.288 734.53 497.722 734.033 499.615C733.48 501.518 735.147 503.157 736.804 504.358Z" fill="#2D8396"/>
<path d="M756.494 437.589C756.015 437.193 754.806 435.735 753.09 435.179C751.476 434.498 749.358 434.719 749.425 434.771C749.376 434.866 750.914 433.356 753.17 433.052C755.349 432.586 758.241 433.326 759.134 434.243C761.2 435.873 761.187 438.384 760.076 438.768C758.971 439.182 757.59 438.396 756.494 437.589" fill="#2D8396"/>
<path d="M751.909 427.386C751.931 428.009 752.345 429.854 751.737 431.551C751.292 433.246 749.825 434.79 749.825 434.707C749.718 434.688 751.854 434.388 753.472 432.788C755.172 431.349 756.351 428.605 756.17 427.337C756.139 424.707 754.144 423.181 753.162 423.829C752.158 424.452 751.937 426.023 751.909 427.386" fill="#2D8396"/>
<path d="M788.02 483.482C787.541 483.089 786.331 481.631 784.616 481.076C783.001 480.395 780.883 480.616 780.951 480.665C780.899 480.763 782.439 479.253 784.695 478.946C786.875 478.482 789.766 479.222 790.659 480.137C792.725 481.77 792.713 484.28 791.602 484.664C790.497 485.078 789.115 484.293 788.02 483.482" fill="#2D8396"/>
<path d="M782.486 473.194C782.56 473.811 783.125 475.619 782.658 477.359C782.351 479.084 781.016 480.745 781.01 480.659C780.902 480.65 783.008 480.177 784.49 478.452C786.062 476.874 787.014 474.047 786.731 472.798C786.486 470.177 784.371 468.82 783.444 469.545C782.495 470.251 782.406 471.834 782.486 473.194Z" fill="#2D8396"/>
<path d="M778.637 539.682C755.282 542.242 733.53 552.552 712.587 562.605C698.468 569.385 699.18 571.316 696.304 572.325C695.838 572.488 695.371 571.982 695.598 571.533C696.703 569.342 699.607 567.859 701.624 566.598C703.975 565.131 706.43 563.832 708.919 562.623C714.251 560.036 719.718 557.709 725.15 555.349C736.203 550.545 747.437 546.027 759.113 542.97C765.516 541.294 772.029 540.085 778.622 539.492C778.745 539.48 778.76 539.667 778.637 539.682" fill="#2D8396"/>
<path d="M757.587 532.439C757.737 533.4 758.738 536.181 758.121 538.928C757.755 541.638 755.776 544.315 755.763 544.183C755.591 544.174 758.848 543.302 761.049 540.512C763.403 537.952 764.704 533.477 764.183 531.546C763.63 527.473 760.245 525.493 758.845 526.684C757.409 527.845 757.372 530.322 757.587 532.439Z" fill="#2D8396"/>
<path d="M737.01 539.808C737.164 540.766 738.161 543.547 737.544 546.297C737.179 549.007 735.202 551.684 735.187 551.549C735.018 551.54 738.272 550.668 740.472 547.881C742.83 545.321 744.131 540.843 743.609 538.912C743.054 534.839 739.668 532.859 738.269 534.05C736.835 535.211 736.795 537.691 737.01 539.808" fill="#2D8396"/>
<path d="M716.105 549.128C716.256 550.085 717.253 552.866 716.639 555.616C716.274 558.327 714.294 561.003 714.282 560.868C714.11 560.862 717.367 559.987 719.567 557.2C721.922 554.64 723.223 550.162 722.701 548.232C722.149 544.162 718.76 542.179 717.364 543.37C715.927 544.53 715.89 547.01 716.105 549.128Z" fill="#2D8396"/>
<path d="M763.729 551.666C763.306 550.874 762.489 548.268 760.503 546.586C758.72 544.791 755.767 543.925 755.832 544.029C755.712 544.131 758.597 542.958 761.774 543.784C764.939 544.355 768.398 546.927 769.091 548.643C770.955 551.952 769.564 555.3 767.87 555.205C766.166 555.153 764.751 553.345 763.729 551.666" fill="#2D8396"/>
<path d="M742.327 559.241C741.906 558.449 741.087 555.843 739.101 554.161C737.318 552.366 734.365 551.5 734.429 551.605C734.31 551.706 737.195 550.533 740.375 551.359C743.539 551.93 746.995 554.502 747.689 556.218C749.552 559.527 748.162 562.875 746.468 562.78C744.764 562.728 743.352 560.92 742.327 559.241Z" fill="#2D8396"/>
<path d="M780.027 543.866C779.659 543.424 778.799 541.896 777.329 541.104C775.976 540.211 774.008 540.057 774.06 540.115C773.999 540.195 775.656 539.078 777.759 539.176C779.821 539.118 782.332 540.275 782.995 541.26C784.604 543.093 784.174 545.379 783.096 545.542C782.019 545.735 780.893 544.787 780.027 543.866" fill="#2D8396"/>
<path d="M777.56 533.805C777.474 534.373 777.544 536.126 776.706 537.571C776.016 539.039 774.42 540.202 774.435 540.122C774.34 540.088 776.338 540.174 778.078 538.989C779.868 537.961 781.402 535.659 781.452 534.474C781.863 532.071 780.301 530.346 779.297 530.773C778.278 531.172 777.814 532.568 777.56 533.805" fill="#2D8396"/>
<path d="M176.028 396.884C148.584 372.411 134.472 337.27 127.467 312.095C119.862 284.768 118.754 262.957 118.744 262.739L117.252 262.647C117.262 262.868 118.375 284.839 126.026 312.35C133.096 337.77 147.356 373.274 175.141 398.047L176.028 396.884" fill="#2D8396"/>
<path d="M121.869 256.413C123.222 262.705 122.09 268.65 119.206 272.941C114.684 269.611 111.128 264.28 109.775 257.987C108.422 251.695 109.555 245.75 112.439 241.459C116.961 244.786 120.517 250.121 121.869 256.413Z" fill="#2D8396"/>
<path d="M113.452 274.332C118.181 278.731 120.945 284.511 121.48 290.075C116.289 290.309 110.579 288.203 105.85 283.805C101.122 279.403 98.3579 273.627 97.8223 268.062C103.013 267.825 108.724 269.934 113.452 274.332Z" fill="#2D8396"/>
<path d="M111.234 293.156C117.11 295.001 121.929 299.092 124.781 304.062C120.516 306.803 114.803 307.589 108.927 305.747C103.051 303.902 98.2319 299.811 95.3799 294.838C99.6445 292.1 105.357 291.312 111.234 293.156" fill="#2D8396"/>
<path d="M120.283 315.802C124.938 317.273 128.659 321.026 130.767 325.769C127.239 328.734 122.618 329.857 117.963 328.39C113.308 326.92 109.587 323.166 107.479 318.424C111.007 315.459 115.629 314.335 120.283 315.802Z" fill="#2D8396"/>
<path d="M128.232 283.481C131.895 279.792 136.747 278.221 141.443 278.727C141.703 283.696 139.989 288.733 136.326 292.423C132.663 296.109 127.811 297.68 123.115 297.177C122.855 292.208 124.569 287.168 128.232 283.481Z" fill="#2D8396"/>
<path d="M132.477 299.713C136.14 296.024 140.992 294.452 145.688 294.955C145.948 299.928 144.234 304.965 140.571 308.651C136.908 312.34 132.056 313.912 127.36 313.408C127.1 308.436 128.814 303.399 132.477 299.713Z" fill="#2D8396"/>
<path d="M159.488 430.069C134.145 426.376 112.456 411.361 98.7248 399.415C83.8174 386.45 74.8045 374.197 74.7152 374.074L73.8125 374.593C73.9027 374.716 82.9801 387.061 97.9842 400.115C111.849 412.181 133.762 427.346 159.42 431.088L159.488 430.069" fill="#5B64B3"/>
<path d="M74.1052 369.197C77.306 372.334 78.9284 376.226 78.899 379.826C74.9929 379.627 70.8787 377.889 67.6779 374.752C64.4775 371.613 62.8547 367.724 62.8842 364.12C66.7906 364.323 70.9045 366.057 74.1052 369.197Z" fill="#5B64B3"/>
<path d="M76.0871 382.843C80.5239 383.586 84.3478 385.882 86.7944 388.912C83.8677 391.042 79.7397 392.009 75.3029 391.266C70.8661 390.523 67.042 388.224 64.5957 385.194C67.5224 383.067 71.6507 382.101 76.0871 382.843" fill="#5B64B3"/>
<path d="M82.0212 394.636C86.1446 393.454 90.516 393.982 94.0814 395.778C92.6532 399.007 89.6345 401.656 85.5114 402.84C81.388 404.022 77.0166 403.494 73.4512 401.699C74.8794 398.47 77.8981 395.821 82.0212 394.636Z" fill="#5B64B3"/>
<path d="M95.9722 404.329C99.2414 403.396 102.845 404.151 105.891 406.097C104.977 409.176 102.722 411.604 99.4529 412.534C96.1837 413.467 92.5796 412.712 89.5342 410.766C90.4482 407.687 92.703 405.262 95.9722 404.329" fill="#5B64B3"/>
<path d="M88.1897 382.491C88.904 378.939 91.121 376.165 94.0446 374.658C96.1029 377.445 97.0397 381.033 96.3254 384.581C95.6112 388.129 93.3938 390.907 90.4703 392.414C88.4119 389.627 87.4752 386.039 88.1897 382.491Z" fill="#5B64B3"/>
<path d="M96.8858 390.296C97.6004 386.745 99.8174 383.97 102.741 382.46C104.799 385.25 105.736 388.838 105.022 392.387C104.307 395.935 102.09 398.713 99.1667 400.22C97.1084 397.43 96.1716 393.845 96.8858 390.296" fill="#5B64B3"/>
<path d="M174.749 505.923C145.514 517.022 113.334 511.159 91.4852 504.287C67.7666 496.825 50.7598 486.598 50.5903 486.497L49.9424 487.734C50.1124 487.838 67.2435 498.145 91.119 505.659C113.182 512.602 145.694 518.519 175.29 507.282L174.749 505.923" fill="#147CA4"/>
<path d="M46.9932 480.557C52.3002 482.62 56.3794 486.641 58.524 491.328C54.2416 493.516 48.8094 493.845 43.5024 491.785C38.1955 489.723 34.1163 485.702 31.9717 481.015C36.2538 478.826 41.6863 478.498 46.9932 480.557" fill="#147CA4"/>
<path d="M57.35 496.997C62.5259 495.18 67.9891 495.761 72.4259 498.155C70.5944 502.746 66.7804 506.586 61.6042 508.406C56.4283 510.223 50.9651 509.64 46.5283 507.249C48.3601 502.657 52.1741 498.818 57.35 496.997" fill="#147CA4"/>
<path d="M70.7997 508.563C74.4777 504.444 79.4556 502.39 84.3393 502.482C84.7681 507.562 83.1536 512.887 79.4753 517.004C75.7969 521.123 70.8193 523.176 65.9356 523.084C65.5068 518.007 67.1216 512.679 70.7997 508.563Z" fill="#147CA4"/>
<path d="M89.618 514.532C93.2961 510.416 98.274 508.363 103.157 508.455C103.586 513.532 101.972 518.857 98.2936 522.976C94.6153 527.092 89.6377 529.146 84.754 529.057C84.3252 523.977 85.9397 518.652 89.618 514.532Z" fill="#147CA4"/>
<path d="M71.9125 495.241C68.6755 491.027 67.2329 485.947 67.5757 481.34C71.8388 481.837 76.1973 484.314 79.434 488.528C82.6706 492.743 84.1135 497.823 83.7704 502.43C79.5076 501.932 75.1491 499.455 71.9125 495.241" fill="#147CA4"/>
<path d="M91.4606 501.358C88.1632 497.193 86.642 492.132 86.91 487.509C91.1715 487.933 95.5604 490.336 98.8582 494.501C102.156 498.667 103.677 503.731 103.409 508.354C99.1473 507.93 94.7584 505.527 91.4606 501.358" fill="#147CA4"/>
<path d="M114.349 516.169C115.213 513.974 116.931 512.449 118.943 511.82C119.909 513.848 120.077 516.258 119.212 518.452C118.348 520.647 116.63 522.173 114.617 522.802C113.652 520.773 113.484 518.363 114.349 516.169Z" fill="#147CA4"/>
<path d="M237.493 572.127C237.493 572.127 274.74 424.815 262.389 410.014C245.319 389.557 231.238 457.418 229.857 451.654C216.809 397.221 213.333 327.574 171.242 320.204C147.315 316.012 176.769 371.994 174.997 387.135C173.225 402.276 130.106 352.006 103.904 325.671C77.7013 299.336 64.169 316.008 80.7246 349.124C96.7339 381.147 148.524 416.141 137.848 420.294C127.173 424.447 62.3624 383.09 54.4259 400.769C44.6947 422.445 141.914 451.942 132.759 456.813C123.604 461.681 77.1393 445.644 78.4088 462.218C79.678 478.796 142.14 478.176 141.072 485.469C139.344 497.274 98.0319 470.552 96.2161 486.887C94.3588 503.594 150.566 500.546 149.592 513.578C149.033 521.068 136.972 509.769 135.195 520.144C131.143 543.793 205.238 572.605 205.238 572.605L237.493 572.127" fill="#2D8396"/>
<path d="M265.894 573.026C265.894 573.026 230.446 518.676 213.388 508.415C195.213 497.482 209.05 530.217 209.05 530.217C209.05 530.217 171.909 486.021 161.583 494.999C151.259 503.98 160.63 514.379 160.63 514.379C160.63 514.379 127.286 504.499 121.292 516.737C112.083 535.546 166.98 551.141 166.98 551.141C166.98 551.141 143.414 550.89 147.75 563.588C154.289 582.737 265.894 573.026 265.894 573.026Z" fill="#5B64B3"/>
<path d="M121.293 516.736C127.286 504.498 160.631 514.379 160.631 514.379C160.631 514.379 151.259 503.98 161.584 494.999C171.909 486.021 201.62 512.899 201.62 512.899C201.62 512.899 198.506 490.732 220.88 510.26C236.86 524.207 265.894 573.025 265.894 573.025L121.293 516.736Z" fill="#147CA4"/>
<path d="M222.866 436.564L224.456 435.478C195.596 391.77 186.786 339.876 184.477 304.038C181.972 265.149 186.369 236.241 186.414 235.956L184.443 235.382C184.398 235.674 179.967 264.771 182.482 303.894C184.805 340.036 193.697 392.39 222.866 436.564Z" fill="#147CA4"/>
<path d="M192.095 229.148C192.158 237.926 189.112 245.186 184.249 249.541C179.31 243.261 176.151 234.783 176.088 226.005C176.025 217.224 179.071 209.964 183.934 205.609C188.873 211.889 192.032 220.367 192.095 229.148Z" fill="#147CA4"/>
<path d="M176.462 248.884C181.381 256.647 183.401 265.364 182.606 272.844C175.853 270.922 169.055 265.726 164.136 257.963C159.217 250.201 157.197 241.484 157.993 234.001C164.745 235.922 171.543 241.119 176.462 248.884Z" fill="#147CA4"/>
<path d="M168.577 272.462C175.658 277.386 180.776 284.789 183.124 292.49C176.897 294.227 169.324 292.803 162.243 287.877C155.162 282.954 150.044 275.55 147.695 267.849C153.923 266.112 161.496 267.536 168.577 272.462Z" fill="#147CA4"/>
<path d="M177.812 313.629C180.9 315.471 183.246 318.427 184.451 321.6C181.915 322.546 178.727 322.199 175.639 320.354C172.551 318.512 170.204 315.557 169 312.383C171.535 311.438 174.724 311.784 177.812 313.629Z" fill="#147CA4"/>
<path d="M180.322 328.878C183.409 330.723 185.756 333.676 186.96 336.852C184.425 337.795 181.237 337.448 178.149 335.606C175.06 333.765 172.714 330.809 171.51 327.632C174.045 326.69 177.234 327.037 180.322 328.878Z" fill="#147CA4"/>
<path d="M193.066 267.15C198.772 263.918 205.444 263.951 211.362 266.625C210.37 273.215 206.816 279.043 201.111 282.275C195.405 285.511 188.733 285.474 182.814 282.803C183.806 276.213 187.361 270.385 193.066 267.15Z" fill="#147CA4"/>
<path d="M194.205 290.124C199.911 286.892 206.583 286.925 212.501 289.599C211.509 296.186 207.955 302.018 202.249 305.25C196.544 308.482 189.872 308.448 183.953 305.775C184.945 299.185 188.499 293.356 194.205 290.124Z" fill="#147CA4"/>
<path d="M193.074 323.003C196.788 320.901 201.13 320.922 204.982 322.663C204.337 326.951 202.024 330.744 198.31 332.85C194.596 334.952 190.253 334.931 186.401 333.191C187.047 328.903 189.36 325.109 193.074 323.003" fill="#147CA4"/>
<path d="M600.325 452.62C603.676 453.166 603.48 453.713 603.91 453.771C604.419 453.839 610.472 450.8 610.472 450.8C610.472 450.8 628.376 441.963 629.324 441.451L642.246 425.192L652.206 429.787C652.206 429.787 637.673 447.071 636.752 447.832C635.834 448.593 610.165 457.596 607.934 458.464C607.934 458.464 605.681 460.521 604.226 461.764C602.768 463.004 600.822 463.498 600.358 463.78C600.288 463.823 598.682 464.67 596.411 465.165C594.456 465.591 596.086 464.262 596.086 464.262C596.086 464.262 599.548 462.801 599.376 462.537C599.244 462.332 597.406 463.246 595.248 463.74C594.692 463.866 594.143 463.992 593.639 464.1C592.313 464.385 591.733 463.627 593.062 463.099C593.532 462.915 594.321 462.623 594.916 462.5C595.558 462.365 596.098 462.028 596.617 461.831C597.648 461.438 598.406 461.165 598.366 461.131C598.311 461.085 598.458 460.855 597.863 460.972C597.151 461.113 595.708 461.755 594.64 461.874C594.035 461.945 592.78 462.166 592.78 462.166C592.78 462.166 590.558 462.378 590.543 462.068C590.512 461.386 591.878 461.009 592.719 461.024C593.247 460.754 594.576 460.561 594.576 460.561C594.576 460.561 597.151 459.541 597 459.161C596.942 459.01 595.383 459.244 593.728 459.357C591.979 459.477 590.711 459.477 590.616 459.136C590.469 458.599 591.862 458.397 591.862 458.397C591.862 458.397 593.09 458.219 593.492 458.127C593.962 458.019 595.346 457.583 595.346 457.583C595.346 457.583 600.085 455.843 599.913 455.496C599.741 455.146 598.959 454.413 598.624 454.416C598.29 454.416 597.694 454.75 597.36 454.753C597.025 454.753 596.307 454.689 596.258 454.268C596.205 453.848 598.062 452.979 598.062 452.979C598.062 452.979 599.355 452.463 600.325 452.62" fill="#F8A492"/>
<path d="M633.253 435.263C633.253 435.263 636.479 438.191 637.82 439.155C638.934 439.956 644.367 442.574 644.367 442.574C644.367 442.574 649.769 434.299 652.133 430.149C654.999 425.113 656.985 417.626 656.307 417.424C654.404 416.853 651.789 416.506 649.373 417.614C641.012 421.451 633.253 435.263 633.253 435.263" fill="#355389"/>
<path d="M603.455 456.945C602.019 457.172 600.552 456.899 599.916 455.585C599.775 457.144 602.135 457.918 603.455 456.945Z" fill="#FE875E"/>
<path d="M202.768 398.897C202.968 394.078 202.261 389.317 200.114 384.833C198.266 380.971 193.696 378.78 189.528 378.777C176.292 378.758 174.609 396.321 166.184 403.095C163.61 405.164 160.733 406.849 158.297 409.084C149.302 417.325 153.353 432.583 161.613 439.811C167.344 444.824 176.352 447.675 183.416 443.752C187.104 441.708 189.903 438.307 191.897 434.578C194.728 429.29 196.552 423.188 198.565 417.549C200.708 411.549 202.503 405.302 202.768 398.897" fill="#13375B"/>
<path d="M204.93 422.233C200.796 409.692 195.339 409.888 195.339 409.888L199.748 436.592C202.301 435.895 205.625 434.342 208.175 433.621C207.33 429.655 205.949 425.321 204.93 422.233Z" fill="#71DEE4"/>
<path d="M225.823 465.005L210.709 453.476C210.709 453.476 209.189 442.718 207.153 433.175C204.603 433.893 202.301 435.895 199.748 436.591L203.591 457.966L223.4 468.187L228.996 475.376L230.268 467.994L225.823 465.005" fill="#F48C7F"/>
<path d="M363.592 446.997C368.285 446.997 372.687 448.234 376.496 450.398C376.978 450.671 377.5 450.92 378.055 451.15C389.67 455.92 402.377 447.086 402.377 434.529V372.783H340.63C328.074 372.783 319.24 360.072 324.01 348.461C324.24 347.902 324.488 347.381 324.762 346.899C326.926 343.093 328.163 338.688 328.163 333.995C328.163 319.124 315.762 307.147 300.737 307.844C287.141 308.473 276.191 319.643 275.812 333.249C275.676 338.086 276.857 342.638 279.02 346.576C279.289 347.064 279.536 347.595 279.763 348.16C284.494 359.965 275.519 372.783 262.802 372.783H201.586V513.48C201.586 546.669 228.491 573.572 261.68 573.572H402.377V512.031C402.377 499.413 389.63 490.524 377.942 495.279C377.383 495.506 376.858 495.754 376.376 496.024C372.211 498.363 367.346 499.594 362.171 499.321C348.838 498.615 338.07 487.78 337.441 474.447C336.732 459.41 348.712 446.997 363.592 446.997" fill="#75FAC8"/>
<path d="M497.42 412.745C497.638 408.055 499.08 403.715 501.419 400.013C501.714 399.544 501.987 399.034 502.242 398.491C507.549 387.113 499.32 374.007 486.778 373.42L425.096 370.535L422.214 432.217C421.628 444.759 408.518 452.988 397.14 447.681C396.597 447.426 396.087 447.153 395.618 446.858C391.916 444.519 387.576 443.077 382.886 442.859C368.03 442.165 355.489 453.992 355.482 469.032C355.476 482.644 366.121 494.102 379.697 495.118C384.522 495.477 389.126 494.51 393.156 492.534C393.659 492.288 394.203 492.067 394.777 491.868C406.79 487.69 419.172 497.254 418.58 509.959L415.719 571.107L556.263 577.678C589.415 579.228 617.549 553.608 619.099 520.456L625.668 379.912L564.194 377.039C551.591 376.45 542.116 388.767 546.318 400.664C546.521 401.235 546.745 401.769 546.99 402.263C549.133 406.533 550.133 411.45 549.621 416.607C548.292 429.891 536.969 440.143 523.617 440.149C508.565 440.155 496.723 427.607 497.42 412.745" fill="#71DEE4"/>
<path d="M325.55 315.627C325.787 320.314 324.774 324.774 322.803 328.685C322.555 329.179 322.33 329.713 322.131 330.281C317.95 342.119 327.41 354.369 339.949 353.737L401.619 350.637L398.519 288.967C397.889 276.428 410.136 266.966 421.975 271.146C422.543 271.346 423.077 271.57 423.571 271.818C427.481 273.789 431.941 274.802 436.631 274.568C451.484 273.819 462.822 260.833 461.37 245.864C460.06 232.315 448.356 221.941 434.746 222.245C429.906 222.352 425.422 223.761 421.597 226.118C421.121 226.413 420.606 226.686 420.05 226.941C408.5 232.257 395.25 223.939 394.611 211.238L391.536 150.099L251.017 157.165C217.869 158.831 192.349 187.054 194.016 220.2L201.082 360.72L262.546 357.629C275.148 356.997 283.385 343.817 278.05 332.383C277.795 331.837 277.521 331.327 277.225 330.858C274.682 326.815 273.208 322.018 273.222 316.837C273.256 303.485 283.536 292.187 296.822 290.888C311.802 289.424 324.804 300.766 325.55 315.627" fill="#5B64B3"/>
<path d="M451.776 281.591C447.08 281.591 442.678 280.354 438.869 278.19C438.39 277.917 437.869 277.668 437.31 277.438C425.699 272.668 412.988 281.502 412.988 294.059V355.806H474.738C487.292 355.806 496.125 368.516 491.356 380.13C491.129 380.686 490.877 381.208 490.604 381.69C488.44 385.496 487.203 389.9 487.203 394.593C487.203 409.465 499.603 421.441 514.631 420.745C528.225 420.115 539.177 408.946 539.554 395.339C539.689 390.502 538.511 385.95 536.347 382.012C536.077 381.524 535.831 380.993 535.604 380.428C530.871 368.623 539.846 355.806 552.565 355.806H613.781V215.108C613.781 181.919 586.875 155.016 553.686 155.016H412.988V216.557C412.988 229.175 425.738 238.064 437.424 233.31C437.982 233.083 438.507 232.834 438.992 232.561C443.154 230.225 448.022 228.994 453.197 229.267C466.527 229.973 477.295 240.805 477.924 254.142C478.636 269.179 466.653 281.591 451.776 281.591" fill="#7E84FF"/>
<path d="M161.396 554.051C161.396 554.051 160.464 560.533 158.859 562.623C158.321 563.326 157.337 564.213 156.692 565.484C155.687 567.458 156.242 570.398 156.984 572.019C157.364 572.851 156.957 572.848 157.823 573.118C160.389 573.91 163.119 572.574 164.211 570.11C164.822 568.735 165.357 566.899 165.465 564.588C165.739 558.701 167.565 555.708 167.565 555.708L161.396 554.051Z" fill="#F7A491"/>
<path d="M189.461 557.016C189.461 557.016 190.036 564.324 189.569 566.7C189.319 567.973 187.925 570.592 188.565 571.789C189.204 572.986 189.934 573.283 189.934 573.283L206.501 573.554C207.403 573.566 206.807 572.986 206.079 572.449C204.888 571.571 203.927 570.991 200.123 569.146C199.875 569.026 198.972 568.449 198.646 568.25C197.82 567.746 196.99 566.948 196.276 566.153C195.087 564.824 194.983 558.388 194.983 558.388L189.461 557.016Z" fill="#F7A491"/>
<path d="M202.409 459.852C202.409 459.852 204.495 471.718 203.125 479.499C201.756 487.28 195.181 559.404 195.181 559.404L187.875 559.815C187.875 559.815 186.344 529.689 186.618 525.5C186.892 521.31 189.06 514.3 189.06 514.3L188.332 489.975L197.552 458.019L202.409 459.852" fill="#355389"/>
<path d="M180.936 457.353C180.936 457.353 175.184 466.033 173.814 473.216C172.444 480.398 174.819 502.47 172.185 511.884C170.758 516.976 165.352 524.846 164.53 531.43C163.708 538.013 160.484 555.257 160.484 555.257L167.787 556.709L184.759 513.639L198.071 474.711L201.482 454.661L180.936 457.353Z" fill="#466EB6"/>
<path d="M185.593 407.976C185.593 407.976 177.976 407.491 174.963 410.782C171.95 414.075 181.648 440.116 182.195 444.305C182.743 448.495 179.402 459.634 179.402 459.634C179.402 459.634 197.295 463.243 202.409 459.852C202.409 459.852 202.957 429.723 202.409 426.73C201.861 423.737 197.295 411.567 196.199 410.37C195.103 409.173 185.593 407.976 185.593 407.976" fill="#71DEE4"/>
<path d="M188.129 397.776C188.129 397.776 188.089 398 188.019 398.381C187.679 400.216 186.371 406.306 185.488 407.979C184.42 410.004 189.143 416.453 193.688 415.667C195.042 415.431 192.545 409.74 192.665 409.136C192.894 407.982 193.206 406.407 193.524 404.793C193.704 403.881 193.887 402.957 194.058 402.088C194.544 399.621 194.94 397.604 194.94 397.604L188.129 397.776" fill="#F7A491"/>
<path d="M188.019 398.381C188.09 398 188.129 397.776 188.129 397.776L194.941 397.604C194.941 397.604 194.544 399.621 194.058 402.089C193.888 402.951 193.707 403.872 193.528 404.777C192.476 404.621 191.378 404.108 190.276 403.141C189.075 402.089 188.288 400.824 187.812 399.47C187.896 399.038 187.966 398.666 188.019 398.381" fill="#75FAC8"/>
<path d="M192.713 382.258C192.713 382.258 189.503 381.886 187.49 384.495C185.478 387.104 183.309 395.17 188.308 399.557C193.307 403.943 198.247 398.976 198.979 393.712C199.712 388.448 199.996 382.067 192.713 382.258Z" fill="#F7A491"/>
<path d="M200.458 393.636C199.862 394.799 198.86 395.443 198.221 395.075C197.582 394.707 197.548 393.464 198.145 392.3C198.742 391.14 199.743 390.496 200.382 390.864C201.021 391.232 201.055 392.472 200.458 393.636Z" fill="#F7A491"/>
<path d="M193.073 381.395C193.073 381.395 188.784 389.065 185.715 389.421C182.647 389.774 182.244 393.851 182.244 393.851C182.244 393.851 183.341 384.458 186.379 382.647C189.416 380.836 193.073 381.395 193.073 381.395Z" fill="#13375B"/>
<path d="M164.708 568.815C160.728 569.542 158.08 567.21 156.702 565.463C155.691 567.44 155.197 570.392 155.941 572.019C156.596 573.453 158.512 573.41 160.02 573.468C161.614 573.526 162.848 572.639 163.639 571.246C164.008 570.598 164.389 569.788 164.708 568.815" fill="#75FAC8"/>
<path d="M198.643 568.25C194.262 569.376 191.023 568.609 189.212 567.879C188.744 569.204 188.125 570.871 188.453 571.829C188.856 573.004 189.428 573.271 189.934 573.284C193.936 573.391 204.593 573.532 207.645 573.572C208.071 573.578 208.306 573.081 208.032 572.753C207.275 571.847 198.97 568.449 198.643 568.25" fill="#75FAC8"/>
<path d="M186.519 391.349C186.769 392.712 186.267 393.961 185.398 394.139C184.53 394.317 183.623 393.359 183.374 391.996C183.124 390.634 183.626 389.384 184.495 389.206C185.363 389.025 186.27 389.986 186.519 391.349" fill="#F7A491"/>
<path d="M521.782 87.2505C522.267 87.2689 523.587 87.7109 525.521 91.3634C527.989 96.0289 531.595 110.117 531.595 110.117L520.828 114.126L519.444 111.186L517.166 88.5458C517.166 88.5458 521.65 87.2443 521.782 87.2505" fill="#DD513A"/>
<path d="M507.55 85.2186C510.631 85.2216 518.246 86.1209 521.782 87.2505C521.782 87.2505 524.382 109.574 519.444 126.539C518.342 130.335 520.358 142.278 520.358 142.278L488.455 141.858C488.455 141.858 492.237 112.984 490.812 108.319C489.388 103.656 489.354 87.4009 489.354 87.4009C489.354 87.4009 489.572 87.3671 496.521 86.1639C499.763 85.6053 504.265 85.2124 507.55 85.2186Z" fill="#75FAC8"/>
<path d="M503.833 183.715C503.833 183.715 504.539 191.861 505.837 194.117C507.135 196.373 505.769 200.207 505.702 200.735C505.631 201.26 502.97 202.012 498.734 201.56C494.499 201.109 494.566 200.133 494.91 198.552C495.251 196.975 497.504 194.943 497.642 193.439C497.777 191.935 496.343 186.523 496.343 186.523L503.833 183.715" fill="#F7A491"/>
<path d="M516.758 135.556C516.758 135.556 538.781 134.335 543.701 137.312C548.618 140.289 540.205 154.906 540.205 154.906C540.205 154.906 524.883 154.2 494.867 155.934C487.759 156.342 487.145 137.401 488.474 135.833C489.803 134.264 516.758 135.556 516.758 135.556" fill="#E0973F"/>
<path d="M498.206 202.192C493.845 201.729 494.385 199.587 494.735 197.96C494.956 196.941 496.208 195.741 496.954 194.608C497.344 194.918 497.976 195.464 499.87 196.026C501.837 196.606 504.532 195.455 506.251 194.737C506.862 197.014 506.889 199.921 506.831 200.36C506.764 200.903 502.565 202.659 498.206 202.192" fill="#DD513A"/>
<path d="M500.612 151.311C501.493 157.969 505.849 191.115 505.849 191.115L495.741 192.367C495.741 192.367 483.31 149.104 483.949 142.487C484.584 135.872 489.237 135.314 489.237 135.314C489.237 135.314 498.283 133.687 500.612 151.311" fill="#71DEE4"/>
<path d="M489.007 89.8808C491.988 88.7635 493.449 115.639 493.851 126.701C499.133 127.211 508.342 126.704 510.631 126.532C511.712 126.452 514.198 125.541 515.269 125.403C516.368 125.258 517.365 125.182 517.906 125.277C518.102 125.311 523.609 127.564 524.078 128.058C524.664 128.668 526.242 130.212 525.975 130.882C525.711 131.548 522.939 129.021 522.939 129.021L521.586 128.26C523.271 129.905 526.485 132.076 526.024 132.864C525.57 133.635 522.672 131.434 520.604 129.936C522.378 131.535 524.578 134.402 524.072 134.847C523.615 135.249 521.11 131.931 518.434 130.977C517.442 130.624 516.451 131.603 515.671 131.723C515.097 131.808 514.213 131.993 513.648 131.833L510.751 131.014C509.763 131.103 509.738 131.686 508.74 131.898C507.583 132.143 505.683 132.404 504.21 132.763C495.717 134.838 492.887 135.802 490.287 135.802C482.414 135.796 481.957 92.5266 489.007 89.8808" fill="#F7A491"/>
<path d="M483.345 115.114C482.786 103.782 482.869 89.8164 489.222 87.4346C491.727 86.4923 496.147 92.1461 495.352 115.344C491.96 115.624 486.982 115.851 483.345 115.114" fill="#DD513A"/>
<path d="M533.394 190.682C533.394 190.682 532.51 193.512 534.091 195.382C535.668 197.251 542.231 199.086 543.093 200.099C543.956 201.112 543.888 201.975 543.888 201.975L525.469 201.468L525.671 195.903L526.519 191.907L533.394 190.682" fill="#F7A491"/>
<path d="M535.235 196.311C535.235 196.311 530.502 198.227 528.216 197.094C525.929 195.961 526 195.645 525.337 196.069C524.677 196.492 524.44 201.707 524.44 201.707L545.15 202.315C546.592 202.281 547.32 201.219 546.15 200.311C545.346 199.688 544.419 199.27 543.891 198.969C542.27 198.039 535.235 196.311 535.235 196.311Z" fill="#DD513A"/>
<path d="M532.693 140.777C534.118 137.778 537.356 133.88 543.053 136.228C548.485 138.469 549.943 143.975 548.231 149.614C546.515 155.252 535.229 188.402 534.836 192.96L525.824 193.021C525.824 193.021 527.463 166.772 527.865 160.427C528.252 154.322 530.229 145.961 532.693 140.777Z" fill="#71DEE4"/>
<path d="M547.322 110.246H517.199C516.404 110.246 515.686 110.728 515.382 111.467L506.109 134.165H489.501C489.038 134.165 488.663 134.543 488.663 135.01C488.663 135.473 489.038 135.851 489.501 135.851H536.766C538.065 135.851 539.243 135.086 539.774 133.895L549.115 113.024C549.698 111.719 548.746 110.246 547.322 110.246" fill="black"/>
<path d="M514.711 57.9531C513.802 57.6461 512.909 57.2993 512.046 56.885C511.07 56.4153 509.806 55.8628 509.008 55.7401C507.326 55.4792 504.437 55.6541 502.841 57.3822C500.855 59.5399 497.326 57.772 498.038 69.0612C498.842 81.839 505.948 80.4363 506.119 80.2183C506.291 80.0035 512.455 72.0446 512.455 72.0446C512.455 72.0446 514.609 76.7591 514.609 76.5872C514.609 76.4184 525.613 61.624 514.711 57.9531" fill="#0E2E35"/>
<path d="M509.314 81.1637L509.928 85.7278C509.928 85.7278 511.303 92.3055 509.535 93.5732C507.767 94.8408 502.019 85.5406 502.019 85.5406L502.626 73.9721L509.314 81.1637" fill="#F7A491"/>
<path d="M502.43 77.7198C503.891 81.667 507.368 84.0919 509.836 85.0342L509.314 81.1637L502.626 73.9721L502.43 77.7198" fill="#75FAC8"/>
<path d="M508.952 61.3815C512.697 60.7799 516.058 63.791 515.963 67.5387C515.923 69.1685 515.791 71.2035 515.45 73.395C514.637 78.6651 511.039 83.3061 508.664 82.8917C506.285 82.4773 500.303 77.9316 501.355 70.4331C502.006 65.8014 505.023 62.0169 508.952 61.3815" fill="#F7A491"/>
<path d="M503.007 71.3263C502.808 72.4865 501.878 73.2907 500.932 73.128C499.99 72.9623 499.385 71.888 499.588 70.7308C499.787 69.5706 500.714 68.7664 501.66 68.9291C502.605 69.0948 503.207 70.1692 503.007 71.3263Z" fill="#F7A491"/>
<path d="M501.66 68.9293C501.66 68.9293 504.536 69.6445 505.601 67.7967C506.669 65.9459 510.484 61.9587 515.331 63.6101C520.18 65.2645 511.064 59.5892 510.677 59.5892C510.288 59.5892 505.634 59.5554 505.634 59.5554C505.634 59.5554 502.046 62.5081 501.917 62.8335C501.785 63.1558 500.751 66.6917 500.751 66.6917L501.66 68.9293" fill="#0E2E35"/>
<path d="M418.439 440.818C418.639 441.509 418.753 441.736 419.007 442.199C420.646 445.186 424.452 449.446 424.452 449.446L427.399 442.813C427.399 442.813 426.917 440.729 426.085 437.752C423.243 438.495 420.533 438.924 418.439 440.818Z" fill="#F8A492"/>
<path d="M435.318 435.066C435.318 435.066 418.897 442.138 418.366 442.003C418.025 441.914 411.631 431.214 411.561 421.15C411.53 416.503 416.358 410.91 421.742 412.018C424.455 412.574 424.412 413.329 428.424 419.158C432.436 424.986 435.318 435.066 435.318 435.066" fill="#13375B"/>
<path d="M449.332 561.841L448.942 568.302C448.798 569.122 448.233 571.144 448.233 571.89C448.233 574.686 461.512 569.515 458.537 568.275C458.267 568.164 456.855 567.317 456.766 566.365C456.631 564.898 456.284 561.93 456.284 561.93L449.332 561.841" fill="#F7A491"/>
<path d="M458.504 568.249C458.504 568.249 455.385 569.103 453.789 569.317C452.193 569.532 450.087 567.731 448.958 568.219C447.715 568.753 447.764 573.572 447.764 573.572C447.764 573.572 464.48 574.944 469.182 573.526C471.045 572.961 464.876 570.241 458.504 568.249Z" fill="#DD513A"/>
<path d="M422.171 561.841L421.778 568.302C421.637 569.122 421.072 571.144 421.072 571.89C421.072 574.686 434.35 569.515 431.373 568.275C431.106 568.164 429.277 566.682 429.188 565.73C429.05 564.266 429.123 561.93 429.123 561.93L422.171 561.841Z" fill="#F7A491"/>
<path d="M431.343 568.25C431.343 568.25 428.224 569.103 426.628 569.318C425.032 569.533 422.927 567.731 421.797 568.219C420.554 568.753 420.505 573.572 420.505 573.572C420.505 573.572 437.297 575.171 442.021 573.526C443.854 572.885 437.715 570.242 431.343 568.25Z" fill="#DD513A"/>
<path d="M426.229 444.394L437.924 428.01C437.973 427.869 438.08 427.574 438.243 427.126C438.832 425.499 440.057 422.117 441.125 418.753L441.134 418.716C441.472 417.54 442.181 415.49 442.869 413.504C443.633 411.297 444.581 408.559 444.615 408.093C444.587 408.013 444.532 407.869 444.459 407.678C444.029 406.567 443.449 403.915 443.243 402.764C443.114 402.031 442.982 400.244 443.857 400.244C445.226 400.244 444.575 402.028 445.207 403.139C445.438 402.396 445.907 400.92 446.156 399.428L446.386 395.944C446.429 395.683 446.15 393.762 447.114 393.762H447.16C448.022 393.826 448.004 395.867 448.363 399.324C448.476 398.925 448.59 398.446 448.676 398.007C448.667 397.771 448.839 396.73 448.967 396.184C448.796 395.22 448.897 393.701 449.922 393.845C450.435 393.915 450.392 396.036 450.392 396.036C450.389 396.325 450.358 398.565 450.373 399.011C450.478 398.259 450.889 395.051 451.693 395.051C452.359 395.051 452.414 395.914 452.399 396.598C452.393 397 451.972 400.475 451.951 400.88C452.264 400.352 452.635 397.292 452.948 397.292C454.247 397.292 453.777 401.644 453.298 402.777C453.255 402.893 453.206 403.12 453.151 403.384C452.988 404.161 452.718 405.459 452.037 406.623C451.22 408.019 450.094 410.241 449.922 410.582C449.796 411.276 449.403 413.771 448.912 416.911C448.7 418.252 448.47 419.726 448.231 421.251L448.219 421.248C448.172 421.58 447.93 422.629 447.003 426.567C445.738 431.957 445.606 432.191 445.551 432.289C445.002 433.262 432.393 450.383 431.856 451.113L431.54 451.543L426.229 444.394" fill="#F7A491"/>
<path d="M447.979 406.187C447.979 406.187 447.031 403.759 445.343 403.753C445.343 403.753 446.285 403.412 447.095 404.053C447.906 404.695 447.979 406.187 447.979 406.187Z" fill="#75FAC8"/>
<path d="M423.405 401.496L421.898 411.014C421.898 411.014 427.635 415.621 430.978 414.648C433.783 413.835 431.862 410.167 431.862 410.167C431.862 410.167 430.367 405.084 430.824 402.42C431.282 399.756 423.405 401.496 423.405 401.496" fill="#F7A491"/>
<path d="M424.486 404.373C425.923 405.054 428.765 405.978 430.978 406.205C430.766 404.87 430.647 403.461 430.825 402.421C431.036 401.193 429.471 400.901 427.728 400.944C425.441 401.138 423.406 401.497 423.406 401.497L423.114 403.326C423.55 403.783 424.007 404.149 424.486 404.373" fill="#FE875E"/>
<path d="M416.165 390.514C415.928 390.514 418.433 401.15 422.31 402.979C426.183 404.808 431.963 403.857 433.046 400.99C434.247 397.822 429.873 386.972 424.421 385.594C418.97 384.216 416.165 390.514 416.165 390.514Z" fill="#F7A491"/>
<path d="M420.65 380.741C417.556 382.527 416.135 385.176 415.656 386.26C414.204 386.95 412.445 388.439 411.601 392.46C410.564 397.399 414.253 401.208 418.163 402.353C422.074 403.497 422.678 406.085 422.678 406.085L423.124 403.301C423.124 403.301 422.252 400.876 420.944 399.661C419.637 398.448 421.564 396.68 421.733 395.238C421.865 394.127 421.046 391.969 421.224 390.146C421.224 390.146 423.397 386.852 425.539 386.039C429.192 384.651 424.621 378.451 420.65 380.741Z" fill="#13375B"/>
<path d="M422.298 397.089C422.804 398.316 422.595 399.538 421.834 399.814C421.073 400.087 420.045 399.317 419.538 398.089C419.032 396.861 419.237 395.64 420.002 395.364C420.763 395.087 421.791 395.861 422.298 397.089Z" fill="#F7A491"/>
<path d="M436.732 444.655L459.289 440.978C459.289 440.978 456.723 434.517 455.806 434.517C454.888 434.517 438.749 441.564 438.749 441.564L437.466 444.14L436.732 444.655Z" fill="#F8A492"/>
<path d="M425.18 460.121C425.18 460.121 422.93 470.999 423.845 479.25C424.762 487.497 424.836 516.798 424.836 516.798L421.334 563.679L429.637 563.86C429.637 563.86 439.483 517 439.299 518.203C439.118 519.407 442.602 485.211 442.602 485.211L430.864 459.09L425.18 460.121" fill="#7E84FF"/>
<path d="M427.38 459.605C427.38 459.605 425.913 469.4 427.745 473.697C429.581 477.994 443.476 520.146 443.66 523.581C443.844 527.018 448.464 565.005 448.464 565.005L458.117 564.735L460.207 522.5L455.833 469.418L451.588 455.996L427.38 459.605" fill="#13375B"/>
<path d="M421.898 411.014C421.898 411.014 424.28 412.577 426.499 412.396C428.722 412.218 431.862 410.167 431.862 410.167L431.423 408.688C431.423 408.688 425.68 407.85 425.536 407.942C425.391 408.031 421.898 411.014 421.898 411.014" fill="#F7A491"/>
<path d="M447.272 434.197C447.272 434.197 455.805 442.251 459.657 440.876C463.509 439.501 465.102 434.802 455.704 427.926C447.294 421.772 447.272 434.197 447.272 434.197" fill="#F8A492"/>
<path d="M453.056 444.139C451.789 437.245 442.602 415.787 441.868 411.834C441.512 409.912 436.555 409.869 431.838 410.121C426.853 410.385 421.899 411.014 421.899 411.014C421.899 411.014 417.485 411.742 415.545 413.559C413.602 415.379 413.087 420.409 415.877 429.961C418.081 437.503 420.812 441.643 422.166 447.135C422.439 448.976 422.672 450.793 422.985 452.917C423.48 461.131 422.979 471.978 422.979 471.978C422.979 471.978 447.003 476.963 455.991 469.4C455.991 469.4 454.355 451.205 453.056 444.139" fill="#355389"/>
<path d="M459.179 429.314C459.179 429.314 449.753 437.095 449.203 437.095C448.85 437.095 435.75 427.46 432.727 419.544C431.057 415.167 434.563 410.271 438.565 410.287C441.343 410.299 442.577 411.014 448.077 415.652C453.58 420.293 459.179 429.314 459.179 429.314" fill="#466EB6"/>
<path d="M293.347 81.962C294.892 78.245 296.463 74.5188 300.471 72.6372C303.715 71.1148 307.104 71.6888 309.986 73.8557C318.154 79.9945 311.036 86.7625 320.333 98.4077C323.221 102.027 326.717 104.949 328.448 109.187C330.87 115.124 327.985 117.972 323.359 120.814C301.234 134.418 289.635 106.492 290.051 100.102C290.361 95.3506 292.352 84.3561 293.347 81.962" fill="#13375B"/>
<path d="M270.383 154.344C271.316 154.197 273.582 152.573 274.382 152.426C275.002 152.312 276.342 152.109 276.913 152.024C277.613 149.408 281.167 135.163 281.565 130.986C281.996 126.462 285.196 106.888 285.196 106.888L293.48 108.395C293.48 108.395 290.04 123.454 289.088 130.753C288.271 137.023 281.391 151.124 280.516 152.613C280.515 152.647 280.514 152.683 280.512 152.72C280.379 154.933 279.313 154.197 279.313 154.197L277.58 154.639C277.58 154.639 271.449 155.228 271.049 155.375C270.65 155.523 269.45 154.491 270.383 154.344Z" fill="#F7A491"/>
<path d="M292.419 95.4486C286.562 97.4345 283.232 113.355 283.232 113.355C283.232 113.355 292.421 115.918 294.775 114.574C294.775 114.574 297.447 102.729 298.405 103.144L292.419 95.4486Z" fill="#6A97CE"/>
<path d="M247.117 181.852C245.325 186.579 244.395 191.13 244.311 191.68C244.271 191.947 244.645 193.23 244.61 193.506C241.013 198.411 235.843 199.485 231.412 199.798C233.671 197.595 236.987 195.504 237.146 194.804C237.4 193.693 238.764 188.745 239.435 181.885C242.191 183.162 244.062 182.149 247.117 181.852" fill="#F7A491"/>
<path d="M298.085 128.978L306 151.271C306 151.271 293.281 153.665 288.526 154.537C283.772 155.409 257.204 156.569 256.531 157.042C256.031 157.392 250.543 175.142 248.092 184.927C245.311 185.541 240.55 184.804 238.018 183.933C239.386 169.927 244.328 147.741 245.911 145.326C248.488 141.394 298.085 128.978 298.085 128.978" fill="#09738A"/>
<path d="M267.166 191.624C266.292 196.6 266.232 201.247 266.253 201.802C266.263 202.073 266.871 203.263 266.888 203.54C264.274 209.034 259.397 211.057 255.103 212.195C256.908 209.605 259.774 206.931 259.8 206.216C259.841 205.077 260.253 199.958 259.627 193.098C262.573 193.831 264.221 192.49 267.166 191.624" fill="#F7A491"/>
<path d="M307.325 130.136L310.397 135.378C315.069 143.362 311.487 153.632 302.863 156.977C302.816 156.996 302.77 157.014 302.725 157.033C298.218 158.779 272.339 164.899 271.766 165.489C271.341 165.925 269.276 184.39 268.702 194.464C266.085 195.584 261.271 195.756 258.62 195.372C257.34 181.36 258.037 158.641 259.139 155.971C260.933 151.624 307.325 130.136 307.325 130.136" fill="#10839C"/>
<path d="M265.856 201.959C266.545 201.198 269.075 205.388 269.707 206.281C270.418 207.284 270.216 208.043 270.131 208.199C269.906 208.614 256.567 216.462 253.313 217.021C253.006 217.073 252.474 216.879 252.339 216.763C251.068 215.636 256.92 207.324 259.548 206.235C261.246 205.529 262.756 205.381 265.856 201.959Z" fill="#13375B"/>
<path d="M243.885 191.83C244.705 191.213 246.405 195.802 246.858 196.796C247.368 197.917 247.028 198.626 246.915 198.764C246.616 199.129 232.042 204.338 228.742 204.276C228.431 204.27 227.944 203.979 227.835 203.837C226.796 202.496 234.102 195.427 236.888 194.847C238.689 194.473 240.199 194.614 243.885 191.83" fill="#13375B"/>
<path d="M297.973 95.4027H297.973C297.822 95.4027 297.605 95.3505 297.382 95.28C296.295 95.0866 293.917 94.8012 292.067 95.5808C289.816 96.5292 286.329 105.403 286.536 114.507C286.62 115.9 286.704 117.146 286.776 118.015C287.344 124.893 289.317 137.8 289.424 137.871C292.108 139.599 308.304 132.898 309.418 131.428C310.533 129.955 311.189 112.076 311.73 111.186L312.795 95.636C310.916 95.0774 300.853 95.3812 297.973 95.4027Z" fill="#9BC1F9"/>
<path d="M304.537 89.675C304.537 89.675 303.494 95.0678 303.703 97.198C303.912 99.3251 302.908 106.182 298.404 106.204C293.9 106.228 297.549 97.4865 297.973 95.4024C298.397 93.3152 298.498 86.8634 298.498 86.8634L304.537 89.675" fill="#F7A491"/>
<path d="M298.404 90.1017C298.475 88.3338 298.497 86.8635 298.497 86.8635L304.537 89.6751C304.537 89.6751 304.324 90.7801 304.109 92.1828C301.466 92.7138 299.55 91.7377 298.404 90.1017Z" fill="#75FAC8"/>
<path d="M306.744 74.7886C306.744 74.7886 309.071 76.0809 309.921 78.8771C310.775 81.6763 309.805 88.8955 303.793 90.6389C297.781 92.3823 295.177 86.6641 296.415 82.1951C297.653 77.723 300.347 72.063 306.744 74.7886" fill="#F7A491"/>
<path d="M295.663 80.4608C295.781 81.661 296.444 82.5787 297.143 82.5111C297.843 82.4436 298.314 81.4124 298.196 80.2122C298.078 79.0121 297.416 78.0943 296.717 78.1619C296.017 78.2325 295.546 79.2607 295.663 80.4608Z" fill="#F7A491"/>
<path d="M306.039 74.4233C306.039 74.4233 307.128 82.4774 309.734 83.9323C312.336 85.3872 311.247 88.96 311.247 88.96C311.247 88.96 313.61 80.6603 311.551 77.9961C309.491 75.3319 306.039 74.4233 306.039 74.4233" fill="#13375B"/>
<path d="M308.191 85.0893C307.485 86.139 307.488 87.376 308.197 87.8517C308.906 88.3306 310.054 87.8671 310.76 86.8174C311.466 85.7677 311.466 84.5307 310.754 84.0519C310.045 83.5761 308.897 84.0396 308.191 85.0893Z" fill="#F7A491"/>
<path d="M320.468 153.672C320.67 153.662 338.734 152.754 338.734 152.754C338.734 152.754 331.238 158.141 331.085 158.141C330.931 158.141 325.115 155.845 324.86 155.845C324.605 155.845 320.468 153.672 320.468 153.672" fill="#5B64B3"/>
<path d="M686.169 562.105L686.528 568.452C686.66 569.256 687.179 571.245 687.179 571.976C687.179 574.723 674.991 569.643 677.722 568.428C677.968 568.317 679.263 567.482 679.346 566.549C679.472 565.106 679.788 562.194 679.788 562.194L686.169 562.105" fill="#F7A491"/>
<path d="M677.605 568.455C677.605 568.455 680.466 569.293 681.93 569.505C683.397 569.713 685.328 567.945 686.365 568.424C687.507 568.949 687.461 573.682 687.461 573.682C687.461 573.682 672.117 575.03 667.802 573.636C666.092 573.084 671.755 570.41 677.605 568.455" fill="#71DEE4"/>
<path d="M706.463 561.777L706.825 568.124C706.954 568.928 707.473 570.917 707.473 571.648C707.473 574.395 695.284 569.315 698.016 568.099C698.265 567.989 699.944 566.534 700.024 565.598C700.149 564.158 700.085 561.866 700.085 561.866L706.463 561.777Z" fill="#F7A491"/>
<path d="M698.048 568.072C698.048 568.072 700.908 568.913 702.376 569.122C703.84 569.334 705.773 567.566 706.808 568.041C707.949 568.569 707.996 573.302 707.996 573.302C707.996 573.302 692.759 573.928 688.244 573.256C686.47 572.992 692.197 570.03 698.048 568.072" fill="#71DEE4"/>
<path d="M702.851 461.144C702.851 461.144 704.917 471.831 704.073 479.937C703.232 488.041 703.167 516.828 703.167 516.828L707.05 562.872L698.756 563.065C698.756 563.065 689.72 517.028 689.886 518.21C690.055 519.391 686.856 485.794 686.856 485.794L697.63 460.131L702.851 461.144" fill="#355389"/>
<path d="M699.96 454.243C699.96 454.243 709.318 464.099 705.838 474.864C704.438 479.188 691.399 520.499 691.23 523.875C691.062 527.252 686.82 564.572 686.82 564.572L677.958 564.305L676.04 522.81L678.572 466.902L683.953 457.472L699.96 454.243" fill="#466EB6"/>
<path d="M643.149 422.162C646.215 418.743 652.882 413.878 652.882 413.878C652.882 413.878 656.857 410.486 658.474 409.928C660.859 409.105 664.941 406.914 670.85 415.864C675.073 422.27 701.743 455.434 706.12 456.548L677.532 470.226C676.749 463.694 662.621 451.352 660.589 449.05C656.043 443.906 640.248 425.4 643.149 422.162" fill="#75FAC8"/>
<path d="M644.484 408.268L653.388 413.479C653.388 413.479 653.64 421.082 650.727 423.056C648.284 424.713 646.427 420.735 646.427 420.735C646.427 420.735 643.115 416.147 640.598 414.72C638.084 413.289 644.484 408.268 644.484 408.268" fill="#F7A491"/>
<path d="M645.976 411.613C645.642 413.2 644.868 415.493 643.665 417.381C642.686 416.319 641.581 415.278 640.599 414.72C639.438 414.06 640.178 412.636 641.308 411.291C642.907 409.628 644.484 408.268 644.484 408.268L646.194 409.268C646.305 409.919 646.09 411.086 645.976 411.613Z" fill="#75FAC8"/>
<path d="M639.843 395.201C639.994 395.017 647.314 404.13 646.412 408.403C645.509 412.678 641.083 416.576 638.008 415.505C634.607 414.317 628.281 403.59 630.549 398.381C632.817 393.175 639.843 395.201 639.843 395.201Z" fill="#F7A491"/>
<path d="M631.829 392.328C635.021 390.551 640.227 390.041 644.116 392.08C648.898 394.581 649.988 400.883 648.49 404.725C646.992 408.568 648.708 410.738 648.708 410.738L646.169 409.259C646.169 409.259 644.687 406.945 644.494 405.103C644.3 403.258 641.611 403.587 640.301 402.749C639.288 402.104 637.999 400.014 636.363 398.927C636.363 398.927 632.247 398.424 630.221 399.56C626.768 401.496 627.259 394.87 631.829 392.328" fill="#13375B"/>
<path d="M642.356 404.287C642.332 405.652 642.979 406.77 643.799 406.785C644.621 406.797 645.303 405.702 645.327 404.333C645.352 402.967 644.704 401.846 643.885 401.834C643.065 401.822 642.381 402.918 642.356 404.287Z" fill="#F7A491"/>
<path d="M625.125 469.188C626.095 467.77 626.519 465.723 627.863 464.161C628.311 463.636 629.029 463.047 629.846 462.457C636.304 458.679 653.124 448.94 653.778 448.185C654.554 447.288 666.034 428.215 666.034 428.215L655.724 425.879L645.647 443.673C644.806 444.339 628.811 456.162 628.811 456.162C628.811 456.162 625.632 458.645 623.891 459.808C623.013 460.321 622.163 460.652 621.417 460.913C620.478 461.239 618.692 462.132 618.33 462.448C617.909 462.819 617.068 463.608 616.568 464.09C616.067 464.575 615.463 465.118 615.229 465.407C615.085 465.582 614.643 465.821 614.321 465.984C613.836 466.223 613.9 466.939 614.419 467.086C614.907 467.224 615.57 466.917 615.978 466.727C617.139 466.18 618.554 464.713 618.627 464.891C618.701 465.072 617.265 468.218 617.123 468.59C616.985 468.961 615.334 472.629 615.248 473.446C615.165 474.265 615.656 474.452 616.024 474.155C616.341 473.897 618.993 468.998 618.993 468.998C618.993 468.998 619.333 468.375 619.465 468.731C619.597 469.09 617.197 473.541 616.961 474.271C616.727 475.002 616.915 475.6 617.59 475.346C618.412 475.032 620.681 470.125 620.681 470.125C620.681 470.125 620.975 469.514 621.178 469.726C621.377 469.937 619.275 473.691 619.25 474.124C619.226 474.557 619.619 474.983 620.187 474.621C620.853 474.195 622.842 469.796 622.842 469.796C622.842 469.796 623.087 469.505 623.164 469.71C623.241 469.913 621.675 473.243 621.792 473.728C621.89 474.136 622.258 474.053 622.258 474.053C623.078 474.053 624.155 470.606 625.125 469.188" fill="#F8A492"/>
<path d="M663.21 438.292C663.21 438.292 659.852 437.224 657.701 436.236C656.258 435.576 649.966 432.445 649.966 432.445C649.966 432.445 652.679 421.002 654.512 416.886C661.243 401.788 668.889 412.202 669.926 414.63C672.249 420.057 663.21 438.292 663.21 438.292Z" fill="#355389"/>
<path d="M803.797 573.345H61.409C60.4808 573.345 59.7285 574.306 59.7285 575.49C59.7285 576.675 60.4808 577.633 61.409 577.633H803.797C804.724 577.633 805.476 576.675 805.476 575.49C805.476 574.306 804.724 573.345 803.797 573.345" fill="#7E84FF"/>
<path d="M339.148 152.736C339.071 152.542 338.902 152.539 338.73 152.533C337.054 152.484 335.379 152.407 333.718 152.159C333.439 152.119 333.166 152.054 332.911 151.953C332.447 151.769 331.993 151.772 331.523 151.904C331.272 151.971 331.014 151.987 330.753 151.984C329.912 151.981 327.506 151.161 326.272 150.946C325.989 150.897 325.765 150.685 325.695 150.406C324.479 145.599 321.873 134.817 321.536 131.268C321.103 126.735 317.972 106.287 317.972 106.287L309.593 108.626C309.593 108.626 313.04 123.718 313.994 131.035C314.731 136.686 320.379 148.678 322.15 152.125C323.012 154.691 324.955 154.764 325.403 154.82C325.661 154.85 325.9 154.976 326.069 155.176C326.373 155.532 326.723 155.842 327.125 156.094C327.423 156.281 327.65 156.526 327.846 156.812C328.202 157.331 328.522 157.874 328.838 158.42C329.046 158.779 329.264 158.896 329.574 158.81C329.906 158.718 330.066 158.472 330.059 158.067C330.05 157.469 329.857 156.928 329.559 156.416C329.277 155.94 329.298 155.661 329.624 155.222C329.814 154.967 330.007 154.722 330.253 154.522C330.504 154.316 330.771 154.163 331.112 154.209C331.714 154.359 332.322 154.482 332.938 154.55L333.445 154.654L333.721 154.712C333.764 154.722 334.657 154.82 334.961 154.82C335.207 154.823 335.603 154.838 335.94 154.853C336.247 154.869 336.895 154.709 336.916 154.709C337.214 154.703 337.478 154.596 337.699 154.396C337.788 154.313 337.877 154.221 337.831 154.083C337.788 153.954 337.69 153.902 337.558 153.877C337.358 153.841 336.318 153.715 336.327 153.672C336.637 153.672 337.604 153.647 337.914 153.641C338.331 153.629 338.69 153.478 338.979 153.171C339.093 153.049 339.225 152.929 339.148 152.736" fill="#F7A491"/>
<path d="M312.895 95.602C317.03 94.85 320.443 113.355 320.443 113.355C320.443 113.355 311.253 115.918 308.899 114.574C308.899 114.574 306.227 102.729 305.27 103.144L312.895 95.602Z" fill="#9BC1F9"/>
<path d="M212.899 428.187C213.173 427.402 209.359 426.769 209.156 425.977C208.953 425.182 213.972 425.121 214.151 424.424C214.482 423.141 208.651 424.154 208.765 423.553C208.881 422.954 214.843 421.613 214.198 420.581C213.554 419.55 208.161 422.616 207.997 421.92C207.834 421.22 213.269 419.519 213.172 417.985C213.12 417.165 204.252 422.07 203.223 421.625C202.195 421.18 204.33 417.331 203.511 416.757C202.692 416.186 200.341 424.584 199.776 424.863C199.213 425.143 187.231 431.981 182.968 433.068C182.451 431.64 181.332 429.716 180.875 428.365C178.483 430.066 176.707 430.922 174.238 432.472C176.027 436.954 178.572 441.861 179.818 442.426C183.612 444.139 198.285 431.969 201.214 429.888C204.145 427.804 205.823 428.479 207.805 427.819C209.787 427.162 212.625 428.97 212.899 428.187" fill="#F7A491"/>
<path d="M173.726 434.624C173.726 434.624 170.442 420.121 171.012 415.913C171.581 411.705 176.582 407.785 180.047 409.237C183.512 410.695 185.083 430.941 185.083 430.941L173.726 434.624Z" fill="#71DEE4"/>
</svg>
