<svg width="49" height="49" viewBox="0 0 49 49" fill="none" xmlns="http://www.w3.org/2000/svg">
<path d="M18.8853 16.3335H3.57279C1.60265 16.3335 0 14.7308 0 12.7603V3.57279C0 1.60265 1.60265 0 3.57279 0H18.8853C20.8558 0 22.4585 1.60265 22.4585 3.57279V12.7603C22.4585 14.7308 20.8558 16.3335 18.8853 16.3335ZM3.57279 3.0625C3.29129 3.0625 3.0625 3.29129 3.0625 3.57279V12.7603C3.0625 13.0422 3.29129 13.271 3.57279 13.271H18.8853C19.1672 13.271 19.396 13.0422 19.396 12.7603V3.57279C19.396 3.29129 19.1672 3.0625 18.8853 3.0625H3.57279Z" fill="white"/>
<path d="M18.8853 49H3.57279C1.60265 49 0 47.3973 0 45.4272V23.9897C0 22.0192 1.60265 20.4165 3.57279 20.4165H18.8853C20.8558 20.4165 22.4585 22.0192 22.4585 23.9897V45.4272C22.4585 47.3973 20.8558 49 18.8853 49ZM3.57279 23.479C3.29129 23.479 3.0625 23.7078 3.0625 23.9897V45.4272C3.0625 45.7087 3.29129 45.9375 3.57279 45.9375H18.8853C19.1672 45.9375 19.396 45.7087 19.396 45.4272V23.9897C19.396 23.7078 19.1672 23.479 18.8853 23.479H3.57279Z" fill="white"/>
<path d="M45.4272 49H30.1147C28.1442 49 26.5416 47.3973 26.5416 45.4272V36.2397C26.5416 34.2692 28.1442 32.6665 30.1147 32.6665H45.4272C47.3974 32.6665 49 34.2692 49 36.2397V45.4272C49 47.3973 47.3974 49 45.4272 49V49ZM30.1147 35.729C29.8329 35.729 29.6041 35.9578 29.6041 36.2397V45.4272C29.6041 45.7087 29.8329 45.9375 30.1147 45.9375H45.4272C45.7087 45.9375 45.9375 45.7087 45.9375 45.4272V36.2397C45.9375 35.9578 45.7087 35.729 45.4272 35.729H30.1147Z" fill="white"/>
<path d="M45.4272 28.5835H30.1147C28.1442 28.5835 26.5416 26.9808 26.5416 25.0103V3.57279C26.5416 1.60265 28.1442 0 30.1147 0H45.4272C47.3974 0 49 1.60265 49 3.57279V25.0103C49 26.9808 47.3974 28.5835 45.4272 28.5835V28.5835ZM30.1147 3.0625C29.8329 3.0625 29.6041 3.29129 29.6041 3.57279V25.0103C29.6041 25.2922 29.8329 25.521 30.1147 25.521H45.4272C45.7087 25.521 45.9375 25.2922 45.9375 25.0103V3.57279C45.9375 3.29129 45.7087 3.0625 45.4272 3.0625H30.1147Z" fill="white"/>
</svg>
