<svg width="1152" height="1080" viewBox="0 0 1152 1080" fill="none" xmlns="http://www.w3.org/2000/svg">
<path fill-rule="evenodd" clip-rule="evenodd" d="M197.256 1080V1050.33C197.256 1020.66 197.256 961.319 167.511 901.978C137.767 842.637 84.2267 777.363 48.5333 718.022C6.8911 658.681 -10.9556 599.341 6.8911 540C30.6867 480.659 96.1244 421.319 131.818 361.978C173.46 302.637 185.358 237.363 161.562 178.022C137.767 118.681 84.2267 59.3407 60.4311 29.6704L30.6867 0H1151.5V48.5C1151.5 78.1703 1151.5 145.659 1151.5 205C1151.5 264.341 1151.5 343.659 1151.5 403C1151.5 462.341 1151.5 488.659 1151.5 548C1151.5 607.341 1151.5 690.659 1151.5 750C1151.5 809.341 1151.5 875.659 1151.5 935C1151.5 994.341 1151.5 1003.33 1151.5 1033V1080H197.256Z" fill="url(#paint0_linear)"/>
<defs>
<linearGradient id="paint0_linear" x1="147.5" y1="1080" x2="1152" y2="33.5" gradientUnits="userSpaceOnUse">
<stop stop-color="#EC01FF"/>
<stop offset="1" stop-color="#2C0064"/>
</linearGradient>
</defs>
</svg>
