<svg width="593" height="595" viewBox="0 0 593 595" fill="none" xmlns="http://www.w3.org/2000/svg">
<path d="M145.071 136.646C119.843 136.646 99.3926 116.194 99.3926 90.9678C99.3926 65.7398 119.843 45.2878 145.071 45.2878C170.299 45.2878 190.75 65.7398 190.75 90.9678C190.75 116.194 170.299 136.646 145.071 136.646" fill="white" fill-opacity="0.35"/>
<path d="M124.357 111.326H133.812V80.7848H124.357V111.326Z" fill="white"/>
<path d="M129.04 76.7852C132.128 76.7852 134.631 74.2598 134.631 71.1492C134.631 68.0372 132.128 65.5145 129.04 65.5145C125.951 65.5145 123.449 68.0372 123.449 71.1492C123.449 74.2598 125.951 76.7852 129.04 76.7852Z" fill="white"/>
<path d="M148.924 95.2942C148.924 90.9995 150.9 88.4422 154.684 88.4422C158.16 88.4422 159.83 90.8968 159.83 95.2942C159.83 99.6928 159.83 111.326 159.83 111.326H169.24C169.24 111.326 169.24 100.169 169.24 91.9888C169.24 83.8075 164.602 79.8528 158.128 79.8528C151.649 79.8528 148.924 84.8981 148.924 84.8981V80.7848H139.854V111.326H148.924C148.924 111.326 148.924 99.9982 148.924 95.2942Z" fill="white"/>
<path d="M206.29 -0.000193203L212.546 11.4372L223.982 17.6918L212.546 23.9465L206.29 35.3838L200.035 23.9465L188.598 17.6918L200.035 11.4372L206.29 -0.000193203Z" fill="#F3F2F1"/>
<path d="M467.157 309.849L471.847 318.427L480.425 323.117L471.847 327.808L467.157 336.387L462.465 327.808L453.887 323.117L462.465 318.427L467.157 309.849Z" fill="white" fill-opacity="0.35"/>
<path d="M480.425 267.495L482.543 271.365L486.412 273.482L482.543 275.599L480.425 279.469L478.31 275.599L474.438 273.482L478.31 271.365L480.425 267.495Z" fill="#7E84FF"/>
<path d="M161.614 4.30111L163.731 8.17175L167.6 10.2878L163.731 12.4051L161.614 16.2744L159.498 12.4051L155.627 10.2878L159.498 8.17175L161.614 4.30111Z" fill="#7E84FF"/>
<path d="M55.5067 363.83C60.2791 361.754 63.6275 356.762 63.5805 350.931C63.5119 343.292 57.652 337.147 50.4889 337.207C43.3285 337.267 37.5759 343.508 37.6436 351.146C37.6952 357.031 41.1968 361.995 46.0739 363.951C26.1567 367.216 27.3425 388.894 27.3425 388.894L74.5353 388.5C74.5353 388.5 75.328 366.56 55.5067 363.83" fill="#7E84FF"/>
<path d="M508.176 506.735C507.508 503.339 504.16 500.685 500.703 500.809C497.275 500.933 494.156 503.773 493.69 507.166C493.194 503.777 490.048 500.965 486.622 500.872C483.162 500.778 479.836 503.462 479.2 506.862C478.735 509.339 479.584 511.917 480.979 514.017C482.374 516.116 484.276 517.816 486.16 519.492C488.796 521.838 491.232 524.045 493.871 526.392C496.487 524.022 498.712 521.796 501.328 519.423C503.196 517.733 505.086 516.016 506.46 513.905C507.835 511.793 508.662 509.208 508.176 506.735" fill="white" fill-opacity="0.35"/>
<path d="M538.912 225.685L543.969 224.682L551.955 207.114L549.953 197.02C549.953 197.02 557.673 194.989 559.376 208.389C561.077 221.79 561.405 218.226 561.405 218.226C561.405 218.226 578.015 214.998 579.679 216.168C580.889 217.016 584.612 233.413 586.56 242.318C587.54 246.802 585.608 251.536 581.635 253.43C581.069 253.7 580.487 253.908 579.895 254.025C575.757 254.845 553.939 255.674 553.939 255.674L545.204 257.406L538.912 225.685" fill="#7E84FF"/>
<path d="M523.887 225.785L533.856 259.756L542.516 258.039L535.795 224.147L523.887 225.785Z" fill="#7E84FF"/>
<path d="M590.621 593.914C590.621 594.108 458.395 594.263 295.325 594.263C132.197 594.263 0 594.108 0 593.914C0 593.724 132.197 593.569 295.325 593.569C458.395 593.569 590.621 593.724 590.621 593.914" fill="#0B0F19"/>
<path d="M487.906 212.352C461 225.437 428.58 214.235 415.494 187.329C402.408 160.423 413.611 128.003 440.518 114.917C467.424 101.831 499.843 113.035 512.93 139.94C526.015 166.847 514.812 199.265 487.906 212.352Z" fill="#75FAC8"/>
<path d="M450.824 175.744C451.735 175.685 452.272 175.054 452.084 174.104C451.952 173.446 451.601 171.798 451.464 171.106C451.281 170.162 451.053 169.914 450.085 169.488C447.98 168.558 446.129 166.929 444.721 164.034C440.637 155.636 443.264 145.061 453.343 140.158C462.268 135.818 469.824 138.886 473.367 146.17C478.027 155.753 477.719 165.902 471.424 168.965C467.945 170.656 463.945 169.046 463.064 165.116C462.017 160.418 461.741 154.934 460.263 151.894C458.939 149.174 456.376 147.614 453.353 149.084C449.799 150.813 448.731 155.88 451.127 160.805C452.653 163.941 454.747 165.548 454.747 165.548C454.747 165.548 458.604 182.729 459.279 185.737C460.621 191.729 464.907 197.794 465.323 198.414C465.569 198.784 466.12 198.63 466.205 198.222C466.327 197.634 468.016 190.348 466.913 184.428C466.604 182.75 464.811 174.156 464.811 174.156C467.036 175.797 471.355 176.093 474.941 174.349C485.627 169.152 488.139 155.888 481.797 142.85C477.001 132.992 464.189 127.872 451.497 134.044C435.708 141.724 433.251 156.917 437.843 166.358C440.623 172.074 445.261 176.108 450.824 175.744" fill="white"/>
<path d="M542.012 365.159C522.736 357.793 513.082 336.196 520.447 316.92C527.812 297.644 549.41 287.988 568.686 295.355C587.962 302.72 597.616 324.316 590.252 343.592C582.886 362.868 561.288 372.524 542.012 365.159" fill="#75FAC8"/>
<path fill-rule="evenodd" clip-rule="evenodd" d="M549.893 345.577C546.681 344.35 544.061 342.258 542.19 339.66L535.38 339.274L539.576 334.202C538.673 330.893 538.769 327.289 540.08 323.857C540.274 323.346 540.497 322.846 540.741 322.365C544.548 314.724 553.684 311.084 561.877 314.214C570.174 317.385 574.556 326.37 572.104 334.692C571.985 335.11 571.846 335.521 571.689 335.934C568.384 344.584 558.604 348.906 549.893 345.577V345.577ZM574.854 336.6C578.452 326.417 573.238 315.148 563.013 311.241C552.91 307.381 541.652 312.144 537.418 321.902C537.306 322.172 537.193 322.441 537.089 322.713C535.74 326.244 535.468 329.91 536.1 333.378L528.888 342.089L540.562 342.757C542.69 345.265 545.465 347.294 548.757 348.552C559.141 352.52 570.744 347.382 574.681 337.078C574.741 336.918 574.802 336.761 574.854 336.6Z" fill="white"/>
<path fill-rule="evenodd" clip-rule="evenodd" d="M563.061 336.955C562.681 336.548 560.843 334.575 560.478 334.263C560.115 333.943 559.834 333.755 559.353 334.095C558.87 334.435 557.587 335.126 557.209 335.323C556.819 335.527 556.542 335.463 556.162 335.055C555.792 334.651 554.488 333.608 553.326 331.368C552.422 329.642 552.061 327.79 551.972 327.232C551.882 326.674 552.214 326.518 552.53 326.376C552.822 326.246 553.193 326.015 553.532 325.842L553.782 325.686C553.952 325.558 554.091 325.43 554.281 325.25C554.557 325.003 554.58 324.708 554.552 324.436C554.526 324.163 554.462 321.558 554.425 320.494C554.396 319.435 553.947 319.446 553.675 319.342C553.411 319.24 553.12 319.079 552.813 318.962C552.504 318.843 551.958 318.766 551.362 319.062C550.765 319.359 549.154 320.014 548.292 322.266C548.092 322.794 547.986 323.359 547.936 323.915C547.785 325.702 548.281 327.415 548.37 327.711C548.485 328.098 549.618 333.996 553.598 337.626C557.592 341.239 557.824 340.631 558.7 340.875C559.57 341.127 561.848 340.816 562.636 339.888C563.43 338.971 563.778 338.056 563.738 337.819C563.696 337.59 563.43 337.359 563.061 336.955" fill="white"/>
<path d="M56.1702 192.472C40.4354 192.472 27.6797 179.717 27.6797 163.981C27.6797 148.246 40.4354 135.49 56.1702 135.49C71.9062 135.49 84.662 148.246 84.662 163.981C84.662 179.717 71.9062 192.472 56.1702 192.472" fill="#75FAC8"/>
<path d="M40.9902 173.52C43.7469 175.286 47.0209 176.318 50.5376 176.318C62.1026 176.318 68.636 166.55 68.2428 157.789C69.4589 156.912 70.5152 155.814 71.3506 154.565C70.2334 155.06 69.0318 155.394 67.7736 155.545C69.0584 154.776 70.0465 153.554 70.511 152.1C69.3074 152.813 67.9741 153.332 66.5569 153.61C65.4198 152.401 63.8017 151.645 62.0089 151.645C57.9892 151.645 55.0345 155.396 55.9422 159.293C50.7652 159.033 46.175 156.553 43.1042 152.784C41.472 155.584 42.258 159.248 45.0318 161.101C44.0105 161.069 43.049 160.788 42.2094 160.321C42.1428 163.208 44.2105 165.906 47.2053 166.508C46.3288 166.748 45.3684 166.801 44.3938 166.614C45.185 169.089 47.4856 170.889 50.2116 170.941C47.5933 172.993 44.2944 173.91 40.9902 173.52" fill="white"/>
<path d="M107.371 511.637H107.371C81.0078 517.916 54.5447 501.637 48.2639 475.272C41.9838 448.909 58.2639 422.445 84.6275 416.165H84.628C110.991 409.885 137.455 426.165 143.735 452.528C150.016 478.893 133.736 505.356 107.371 511.637" fill="white" fill-opacity="0.5"/>
<path d="M89.7646 437.728C82.6563 439.42 81.7719 439.664 79.0104 440.456C76.2552 441.248 74.4584 442.143 72.947 443.187C71.3855 444.266 70.1391 445.508 69.0303 447.308C67.9219 449.111 67.3751 450.786 67.1172 452.666C66.8656 454.483 66.876 456.491 67.4131 459.307C67.9511 462.131 68.1334 463.027 69.8266 470.138C71.5198 477.245 71.762 478.13 72.5552 480.891C73.3448 483.645 74.2412 485.443 75.285 486.954C76.3631 488.516 77.6063 489.761 79.4079 490.871C81.2094 491.979 82.8828 492.527 84.7631 492.785C86.5818 493.035 88.5896 493.026 91.4063 492.488C94.2282 491.951 95.1266 491.768 102.235 490.075C109.343 488.382 110.227 488.139 112.989 487.347C115.744 486.556 117.541 485.661 119.052 484.616C120.614 483.538 121.86 482.295 122.969 480.494C124.077 478.692 124.624 477.019 124.883 475.138C125.133 473.319 125.123 471.311 124.586 468.495C124.048 465.673 123.866 464.775 122.172 457.667C120.479 450.558 120.237 449.674 119.445 446.912C118.654 444.156 117.758 442.36 116.715 440.85C115.636 439.288 114.393 438.04 112.592 436.932C110.79 435.824 109.117 435.276 107.236 435.019C105.417 434.768 103.409 434.778 100.593 435.314C97.7708 435.854 96.873 436.034 89.7646 437.728V437.728ZM90.888 442.443C97.8766 440.779 98.711 440.608 101.501 440.078C104.08 439.584 105.568 439.682 106.576 439.82C107.91 440.004 108.917 440.363 110.051 441.062C111.185 441.759 111.96 442.495 112.725 443.603C113.304 444.442 114.06 445.726 114.785 448.25C115.568 450.979 115.793 451.802 117.457 458.79C119.122 465.778 119.292 466.612 119.824 469.403C120.315 471.981 120.219 473.469 120.081 474.476C119.897 475.812 119.537 476.818 118.84 477.954C118.142 479.087 117.406 479.861 116.297 480.628C115.459 481.206 114.175 481.963 111.652 482.688C108.922 483.471 108.101 483.694 101.111 485.359C94.1224 487.024 93.288 487.194 90.499 487.727C87.9194 488.218 86.4323 488.121 85.4246 487.981C84.0891 487.799 83.0823 487.439 81.9479 486.742C80.814 486.043 80.0396 485.307 79.2735 484.197C78.6959 483.361 77.9386 482.078 77.214 479.554C76.4307 476.823 76.2068 476.002 74.5422 469.014C72.8776 462.026 72.7068 461.191 72.1751 458.402C71.6834 455.82 71.7803 454.334 71.9183 453.326C72.1027 451.991 72.462 450.983 73.1594 449.851C73.8574 448.715 74.5943 447.94 75.7031 447.175C76.5396 446.596 77.824 445.84 80.3479 445.116C83.0771 444.332 83.899 444.108 90.888 442.443" fill="white"/>
<path d="M98.0782 472.627C93.2594 473.773 88.423 470.797 87.2751 465.979C86.1276 461.161 89.1027 456.324 93.9219 455.177C98.7396 454.028 103.576 457.004 104.724 461.823C105.871 466.64 102.896 471.477 98.0782 472.627V472.627ZM92.7979 450.461C85.3755 452.229 80.7907 459.68 82.5588 467.103C84.3271 474.527 91.7792 479.109 99.2016 477.342C106.625 475.573 111.208 468.123 109.44 460.699C107.672 453.276 100.221 448.693 92.7979 450.461Z" fill="white"/>
<path d="M109.784 445.854C110.196 447.587 109.126 449.33 107.391 449.743C105.656 450.155 103.915 449.083 103.502 447.35C103.089 445.615 104.159 443.874 105.895 443.46C107.629 443.047 109.37 444.119 109.784 445.854" fill="white"/>
<path d="M479.072 468.447C466.433 468.447 456.187 458.201 456.187 445.562C456.187 432.924 466.433 422.678 479.072 422.678C491.711 422.678 501.956 432.924 501.956 445.562C501.956 458.201 491.711 468.447 479.072 468.447" fill="white" fill-opacity="0.5"/>
<path d="M475.584 459.396H481.156V445.445H485.043L485.456 440.774H481.156C481.156 440.774 481.156 439.03 481.156 438.114C481.156 437.013 481.377 436.578 482.44 436.578C483.297 436.578 485.456 436.578 485.456 436.578V431.73C485.456 431.73 482.277 431.73 481.599 431.73C477.453 431.73 475.584 433.556 475.584 437.05C475.584 440.094 475.584 440.774 475.584 440.774H472.687V445.504H475.584V459.396" fill="white"/>
<path d="M401.023 594.88L217.173 594.77C195.063 594.76 177.145 576.828 177.149 554.716L177.24 93.8025C177.244 71.6785 195.187 53.7492 217.311 53.7612L401.16 53.8692C423.272 53.8825 441.189 71.8145 441.184 93.9252L441.095 554.841C441.091 576.965 423.148 594.894 401.023 594.88Z" fill="#0B0F19"/>
<path d="M400.965 70.1719L365.321 70.1519C360.541 70.1492 356.663 74.1986 356.663 79.1946L356.66 85.6612C356.661 90.6572 352.784 94.7065 348.004 94.7039L278.524 94.6626C273.744 94.6612 269.869 90.6065 269.871 85.6092L269.872 79.1439C269.873 74.1465 265.997 70.0932 261.217 70.0906L248.681 70.0825L217.483 70.0639C201.989 70.0559 189.423 82.6119 189.42 98.1065L189.332 547.992C189.328 563.478 201.877 576.036 217.363 576.047L400.844 576.153C416.337 576.163 428.904 563.606 428.908 548.112L428.996 98.2252C428.999 82.7386 416.451 70.1812 400.965 70.1719" fill="white"/>
<path d="M403.651 106.72C403.651 106.841 399.015 106.977 393.298 107.025C387.579 107.072 382.942 107.013 382.94 106.892C382.94 106.772 387.575 106.634 393.294 106.588C399.012 106.541 403.65 106.6 403.651 106.72" fill="#0B0F19"/>
<path d="M403.693 112.02C403.695 112.14 399.059 112.276 393.341 112.322C387.621 112.37 382.987 112.31 382.985 112.19C382.984 112.069 387.617 111.933 393.337 111.886C399.055 111.838 403.692 111.898 403.693 112.02Z" fill="#0B0F19"/>
<path d="M403.737 117.317C403.739 117.438 399.104 117.574 393.384 117.621C387.665 117.669 383.029 117.609 383.029 117.489C383.028 117.368 387.661 117.232 393.381 117.185C399.1 117.137 403.736 117.197 403.737 117.317Z" fill="#0B0F19"/>
<path d="M208.688 122.486C208.698 122.475 208.884 122.463 209.23 122.45C209.658 122.435 210.154 122.419 210.74 122.399C212.164 122.366 214.026 122.322 216.312 122.267L216.158 122.423C216.138 121.188 216.116 119.839 216.093 118.383C216.101 117.632 216.028 116.924 216.101 116.056C216.252 115.192 217.022 114.428 217.97 114.339C218.869 114.322 219.66 114.28 220.633 114.326C221.637 114.448 222.492 115.414 222.461 116.478C222.482 118.362 222.505 120.33 222.528 122.371L222.269 122.116C224.526 122.094 226.877 122.07 229.298 122.046L229.032 122.318C229.006 119.486 228.98 116.558 228.953 113.558C228.946 112.81 228.941 112.067 228.934 111.328C228.932 110.64 228.513 110.18 227.946 109.667C226.906 108.642 225.881 107.631 224.873 106.638C223.866 105.644 222.877 104.668 221.909 103.712C221.425 103.235 220.945 102.762 220.472 102.294C219.978 101.818 219.59 101.326 219.018 101.208C218.464 101.059 217.852 101.176 217.405 101.516C216.98 101.875 216.525 102.386 216.097 102.803C215.232 103.676 214.389 104.526 213.574 105.347C211.988 106.995 210.336 108.5 209.133 109.924C208.628 110.71 208.817 111.671 208.78 112.547C208.778 113.419 208.776 114.244 208.774 115.024C208.766 116.542 208.757 117.874 208.75 119.014C208.738 120.034 208.729 120.875 208.721 121.566C208.712 122.155 208.701 122.472 208.688 122.486C208.674 122.499 208.66 122.208 208.64 121.64C208.621 120.962 208.597 120.132 208.569 119.128C208.544 117.979 208.513 116.638 208.478 115.107C208.464 114.311 208.448 113.468 208.432 112.58C208.425 112.131 208.417 111.67 208.41 111.199C208.406 110.699 208.534 110.184 208.798 109.728C210.098 108.135 211.65 106.723 213.249 105.028C214.058 104.199 214.893 103.343 215.752 102.463C216.202 102.02 216.572 101.58 217.108 101.119C217.67 100.687 218.442 100.531 219.146 100.718C219.894 100.883 220.381 101.495 220.834 101.924C221.31 102.391 221.792 102.862 222.277 103.338C223.249 104.291 224.242 105.263 225.25 106.254C226.261 107.244 227.288 108.252 228.33 109.276C228.577 109.538 228.874 109.759 229.116 110.127C229.342 110.476 229.473 110.891 229.484 111.312C229.49 112.054 229.497 112.802 229.504 113.554C229.526 116.554 229.549 119.482 229.57 122.312L229.573 122.583L229.302 122.586C226.881 122.6 224.53 122.616 222.273 122.63L222.016 122.631L222.014 122.375C222.004 120.334 221.993 118.366 221.984 116.482C222.013 115.632 221.353 114.883 220.564 114.775C219.754 114.732 218.801 114.76 218.014 114.767C217.258 114.83 216.628 115.436 216.498 116.134C216.43 116.84 216.482 117.664 216.468 118.38C216.468 119.836 216.469 121.186 216.469 122.42V122.579L216.314 122.578C213.99 122.562 212.097 122.548 210.649 122.539C210.076 122.528 209.592 122.52 209.174 122.514C208.844 122.504 208.678 122.495 208.688 122.486" fill="#0B0F19"/>
<path d="M329.968 474.027C329.968 474.076 329.283 474.121 328.043 474.163C326.671 474.19 324.907 474.228 322.788 474.272C318.354 474.336 312.226 474.373 305.458 474.373C298.688 474.373 292.559 474.336 288.123 474.272C286.006 474.228 284.242 474.19 282.871 474.163C281.631 474.121 280.944 474.076 280.944 474.027C280.944 473.978 281.631 473.933 282.871 473.892C284.242 473.863 286.006 473.825 288.123 473.781C292.559 473.718 298.688 473.68 305.458 473.68C312.226 473.68 318.354 473.718 322.788 473.781C324.907 473.825 326.671 473.863 328.043 473.892C329.283 473.933 329.968 473.978 329.968 474.027Z" fill="white" fill-opacity="0.5"/>
<path d="M407.024 486.087C407.024 486.28 378.798 486.435 343.988 486.435C309.164 486.435 280.944 486.28 280.944 486.087C280.944 485.896 309.164 485.741 343.988 485.741C378.798 485.741 407.024 485.896 407.024 486.087Z" fill="white" fill-opacity="0.5"/>
<path d="M367.624 497.433C367.624 497.627 348.218 497.781 324.286 497.781C300.346 497.781 280.944 497.627 280.944 497.433C280.944 497.243 300.346 497.087 324.286 497.087C348.218 497.087 367.624 497.243 367.624 497.433Z" fill="white" fill-opacity="0.5"/>
<path d="M405.6 515.101L405.721 515.223L409.17 518.684L409.186 508.421L402.232 508.41L402.216 518.475L405.6 515.101ZM409.516 519.52L405.6 515.59L401.869 519.309L401.885 508.063L409.533 508.075L409.516 519.52Z" fill="#0B0F19"/>
<path d="M301.976 510.569C300.003 510.584 298.411 512.201 298.427 514.174C298.443 516.145 300.06 517.738 302.034 517.722C302.54 517.717 303.103 517.539 303.756 517.18L303.814 517.146L304.831 517.601L304.602 516.599L304.647 516.549C305.256 515.88 305.588 515.016 305.58 514.117C305.564 512.144 303.947 510.553 301.976 510.569V510.569ZM305.208 518.057L303.826 517.439C303.158 517.802 302.571 517.98 302.035 517.985C299.918 518.002 298.182 516.293 298.164 514.177C298.148 512.06 299.856 510.322 301.974 510.305C304.091 510.289 305.827 511.998 305.843 514.114C305.851 515.057 305.512 515.963 304.887 516.674L305.208 518.057Z" fill="#0B0F19"/>
<path d="M310.212 511.147L312.742 513.469L314.092 516.763L316.356 511.097L310.212 511.147ZM314.095 517.464L312.51 513.597L309.539 510.889L316.746 510.832L314.095 517.464" fill="#0B0F19"/>
<path d="M312.815 513.608L312.671 513.387L316.602 510.832L316.746 511.052L312.815 513.608" fill="#0B0F19"/>
<path d="M293.867 511.697C293.66 510.667 292.642 509.865 291.594 509.908C290.554 509.949 289.61 510.813 289.472 511.843C289.318 510.815 288.36 509.966 287.32 509.941C286.271 509.915 285.264 510.735 285.075 511.767C284.938 512.52 285.198 513.301 285.623 513.935C286.048 514.572 286.628 515.085 287.2 515.591C288.003 516.302 288.744 516.968 289.548 517.677C290.339 516.955 291.012 516.277 291.803 515.554C292.368 515.039 292.939 514.517 293.355 513.874C293.77 513.232 294.018 512.446 293.867 511.697Z" fill="#75FAC8"/>
<path d="M417.546 529.469C417.546 529.469 417.53 529.037 417.522 528.215C417.516 527.378 417.508 526.163 417.496 524.566C417.486 521.349 417.466 516.617 417.44 510.488C417.412 498.234 417.37 480.406 417.316 458.042L417.546 458.272C366.243 458.301 289.667 458.342 204.323 458.39H204.31L204.658 458.042C204.654 482.865 204.65 506.944 204.646 529.469L204.31 529.133C265.691 529.194 318.952 529.249 356.887 529.289C375.87 529.329 391.012 529.36 401.43 529.382C406.63 529.402 410.647 529.416 413.382 529.425C414.735 529.435 415.768 529.442 416.479 529.447C417.178 529.454 417.546 529.469 417.546 529.469C417.546 529.469 417.207 529.482 416.522 529.489C415.819 529.494 414.799 529.501 413.463 529.511C410.746 529.521 406.752 529.534 401.583 529.554C391.184 529.577 376.067 529.609 357.118 529.647C319.126 529.688 265.784 529.742 204.31 529.804H203.974V529.469C203.97 506.944 203.966 482.865 203.963 458.042V457.694H204.31H204.323C289.667 457.744 366.243 457.785 417.546 457.813H417.774V458.042C417.72 480.465 417.678 498.34 417.65 510.627C417.624 516.733 417.604 521.446 417.592 524.652C417.582 526.23 417.574 527.433 417.568 528.26C417.56 529.068 417.546 529.469 417.546 529.469" fill="#0B0F19"/>
<path d="M272.243 470.312L271.975 517.533L212.909 517.197L213.177 469.977L272.243 470.312" fill="white" fill-opacity="0.35"/>
<path d="M272.243 470.311C272.236 470.318 272.136 470.323 271.947 470.329C271.729 470.332 271.456 470.337 271.109 470.342C270.343 470.346 269.267 470.353 267.884 470.36C265.044 470.363 260.949 470.368 255.773 470.374C245.385 470.353 230.664 470.322 213.176 470.287L213.488 469.978C213.419 484.038 213.34 500.146 213.256 517.194C213.328 517.278 212.608 516.538 212.921 516.851H212.937H212.969H213.033L213.161 516.853L213.417 516.854L213.929 516.857L214.952 516.862L216.988 516.874C218.343 516.882 219.689 516.89 221.031 516.898C223.713 516.913 226.367 516.93 228.989 516.946C234.233 516.98 239.351 517.013 244.313 517.045C254.235 517.117 263.533 517.185 271.976 517.245L271.685 517.532C271.828 503.353 271.947 491.589 272.029 483.33C272.084 479.223 272.128 475.989 272.159 473.744C272.179 472.658 272.195 471.813 272.205 471.204C272.22 470.626 272.243 470.311 272.243 470.311C272.243 470.311 272.263 470.584 272.269 471.142C272.273 471.739 272.28 472.566 272.288 473.627C272.293 475.858 272.3 479.072 272.308 483.15C272.297 491.454 272.281 503.28 272.263 517.534V517.823L271.972 517.822C263.531 517.787 254.232 517.749 244.309 517.708C239.348 517.684 234.229 517.658 228.985 517.633C226.363 517.618 223.708 517.605 221.027 517.59C219.687 517.582 218.337 517.575 216.984 517.569L214.948 517.557L213.925 517.55L213.413 517.548L213.159 517.546H213.029L212.965 517.545H212.933H212.917C213.221 517.857 212.484 517.123 212.561 517.19C212.672 500.142 212.776 484.034 212.867 469.974L212.868 469.663L213.179 469.666C230.749 469.83 245.54 469.968 255.977 470.065C261.123 470.13 265.193 470.181 268.017 470.216C269.372 470.239 270.428 470.257 271.18 470.27C271.512 470.28 271.775 470.287 271.983 470.293C272.16 470.301 272.248 470.306 272.243 470.311" fill="#0B0F19"/>
<path d="M214.963 514.237L269.878 514.549L270.112 473.273L215.196 472.961L214.963 514.237" fill="#7E84FF"/>
<path d="M214.963 514.237L234.288 488.69L246.079 504.808L254.187 496.273L269.878 514.549L214.963 514.237" fill="#F3F2F1"/>
<path d="M251.232 485.642C251.218 488.03 249.271 489.956 246.883 489.942C244.495 489.928 242.571 487.981 242.583 485.593C242.598 483.205 244.544 481.281 246.932 481.294C249.32 481.308 251.244 483.254 251.232 485.642Z" fill="#F3F2F1"/>
<path d="M312.778 163.981C312.778 164.005 312.561 164.029 312.148 164.052C311.653 164.069 311.056 164.09 310.338 164.116C308.658 164.144 306.412 164.181 303.688 164.226C298.07 164.289 290.31 164.329 281.741 164.329C273.166 164.329 265.406 164.289 259.789 164.226C257.065 164.181 254.82 164.144 253.137 164.116C252.42 164.09 251.824 164.069 251.329 164.052C250.916 164.029 250.698 164.005 250.698 163.981C250.698 163.957 250.916 163.934 251.329 163.912C251.824 163.893 252.42 163.872 253.137 163.846C254.82 163.818 257.065 163.781 259.789 163.736C265.406 163.673 273.166 163.634 281.741 163.634C290.31 163.634 298.07 163.673 303.688 163.736C306.412 163.781 308.658 163.818 310.338 163.846C311.056 163.872 311.654 163.893 312.148 163.912C312.561 163.934 312.778 163.957 312.778 163.981Z" fill="#0B0F19"/>
<path d="M394.219 418.457L394.401 418.637L399.527 423.78L399.549 408.528L389.215 408.513L389.191 423.47L394.219 418.457ZM400.039 425.022L394.217 419.184L388.675 424.71L388.701 407.997L400.064 408.016L400.039 425.022" fill="#0B0F19"/>
<path d="M245.867 408.525C241.984 408.556 238.852 411.74 238.883 415.621C238.913 419.504 242.097 422.636 245.98 422.605C246.976 422.596 248.085 422.246 249.371 421.536L249.483 421.472L251.488 422.368L251.033 420.397L251.125 420.297C252.325 418.978 252.977 417.277 252.963 415.509C252.932 411.626 249.748 408.494 245.867 408.525V408.525ZM252.228 423.264L249.507 422.05C248.192 422.762 247.039 423.113 245.984 423.122C241.816 423.156 238.399 419.793 238.365 415.626C238.332 411.46 241.695 408.041 245.863 408.008C250.029 407.973 253.447 411.337 253.48 415.504C253.495 417.36 252.828 419.142 251.6 420.544L252.228 423.264Z" fill="#0B0F19"/>
<path d="M262.077 409.662L267.058 414.234L269.714 420.717L274.172 409.566L262.077 409.662V409.662ZM269.72 422.096L266.602 414.485L260.753 409.156L274.938 409.041L269.72 422.096" fill="#0B0F19"/>
<path d="M267.203 414.507L266.92 414.072L274.656 409.042L274.939 409.476L267.203 414.507Z" fill="#0B0F19"/>
<path d="M229.907 410.747C229.5 408.719 227.495 407.14 225.43 407.223C223.383 407.303 221.526 409.007 221.255 411.035C220.952 409.012 219.067 407.339 217.02 407.291C214.954 407.243 212.974 408.852 212.6 410.884C212.327 412.364 212.84 413.904 213.678 415.154C214.515 416.406 215.656 417.415 216.784 418.414C218.364 419.808 219.824 421.122 221.404 422.518C222.962 421.096 224.287 419.76 225.844 418.34C226.956 417.326 228.08 416.296 228.898 415.031C229.715 413.767 230.203 412.222 229.907 410.747Z" fill="#75FAC8"/>
<path d="M238.236 163.981C238.236 169.296 233.928 173.604 228.614 173.604C223.299 173.604 218.992 169.296 218.992 163.981C218.992 158.668 223.299 154.36 228.614 154.36C233.928 154.36 238.236 158.668 238.236 163.981Z" fill="white" fill-opacity="0.35"/>
<path d="M396.405 369.825C396.405 370.017 356.057 370.172 306.3 370.172C256.524 370.172 216.187 370.017 216.187 369.825C216.187 369.633 256.524 369.477 306.3 369.477C356.057 369.477 396.405 369.633 396.405 369.825Z" fill="white" fill-opacity="0.5"/>
<path d="M396.405 354.817C396.405 355.009 356.057 355.165 306.3 355.165C256.524 355.165 216.187 355.009 216.187 354.817C216.187 354.626 256.524 354.47 306.3 354.47C356.057 354.47 396.405 354.626 396.405 354.817Z" fill="white" fill-opacity="0.5"/>
<path d="M314.28 385.032C314.28 385.224 292.32 385.38 265.236 385.38C238.143 385.38 216.187 385.224 216.187 385.032C216.187 384.841 238.143 384.685 265.236 384.685C292.32 384.685 314.28 384.841 314.28 385.032Z" fill="white" fill-opacity="0.5"/>
<path d="M302.176 548.539C302.167 550.684 300.444 552.413 298.331 552.405C296.216 552.394 294.509 550.646 294.519 548.502C294.528 546.357 296.249 544.625 298.364 544.636C300.479 544.644 302.184 546.392 302.176 548.539Z" fill="#0B0F19"/>
<path d="M314.041 548.592C314.031 550.737 312.309 552.469 310.196 552.46C308.081 552.45 306.375 550.702 306.383 548.557C306.391 546.413 308.113 544.681 310.228 544.69C312.343 544.698 314.048 546.446 314.041 548.592Z" fill="#0B0F19"/>
<path d="M325.904 548.647C325.895 550.792 324.174 552.524 322.059 552.514C319.944 552.506 318.238 550.757 318.247 548.611C318.256 546.467 319.978 544.736 322.092 544.745C324.207 544.754 325.914 546.502 325.904 548.647Z" fill="#0B0F19"/>
<path d="M205.606 313.46L418.843 313.397L418.804 182.993L205.568 183.055L205.606 313.46" fill="#7E84FF"/>
<path d="M225.272 313.452L286.376 231.668L324.258 282.813L349.932 255.459L400.286 313.401L225.272 313.452" fill="#F3F2F1"/>
<path d="M340.313 221.636C340.315 229.247 334.148 235.417 326.537 235.42C318.925 235.423 312.755 229.255 312.752 221.644C312.751 214.033 318.917 207.861 326.528 207.86C334.14 207.859 340.311 214.025 340.313 221.636Z" fill="#F3F2F1"/>
<path d="M418.25 434.622C418.247 431.833 418.12 314.029 417.935 139.636L418.25 139.95C353.946 139.961 281.46 139.972 205.039 139.984H205.015L205.362 139.636C205.338 249.954 205.315 352.05 205.296 434.622L205.015 434.341C334.324 434.512 415.923 434.62 418.25 434.622C415.924 434.626 334.324 434.734 205.015 434.905L204.732 434.906V434.622C204.714 352.05 204.691 249.954 204.667 139.636V139.289H205.015H205.039C281.46 139.301 353.946 139.312 418.25 139.321H418.564V139.636C418.5 226.918 418.446 300.697 418.408 352.665C418.372 378.613 418.343 399.113 418.324 413.134C418.308 420.128 418.295 425.504 418.286 429.14C418.278 430.944 418.271 432.314 418.268 433.245C418.262 434.164 418.25 434.622 418.25 434.622Z" fill="#0B0F19"/>
<path d="M318.053 471.215L322.769 455.364C323.594 451.927 324.686 447.873 326.157 443.245C327.48 439.087 330.872 434.719 333.965 431.572C338.78 426.675 341.07 426.641 344.308 424.043C344.601 423.853 344.932 423.583 345.209 423.434C345.878 423.071 346.37 422.589 346.782 422.072C349.572 419.055 346.893 414.386 341.228 414.83C336.964 415.164 330.009 416.384 318.701 428.051C318.56 428.228 318.412 428.376 318.272 428.557C312.337 436.272 306.764 414.248 305.758 406.051C305.105 400.732 299.352 397.463 294.146 399.387L266.598 412.272C264.324 411.471 261.622 411.606 258.556 412.544C254.5 414.044 252.248 418.215 253.308 422.262L264.482 466.864L231.665 576.055H302.396L318.053 471.215" fill="#F8A58D"/>
<path d="M372.389 370.931L350.525 413.775L339.594 410.739L284.64 455.439C279.964 459.244 273.108 458.635 269.177 454.065L248.253 429.751C248.253 429.751 290.442 411.579 298.245 396.533C306.048 381.489 297.03 378.079 297.03 378.079L316.886 355.515L372.389 370.931Z" fill="#75FAC8"/>
<path d="M344.032 283.409C344.032 283.409 312.027 276.331 266.988 233.02C221.951 189.711 200.787 132.197 195.275 132.477C194.758 132.504 194.079 132.429 193.234 132.355C185.059 131.635 161.4 130.916 119.909 221.171C74.127 320.759 92.1609 343.884 101.271 343.699C110.382 343.512 172.24 326.273 210.878 330.665C249.514 335.057 299.178 355.193 299.178 355.193L344.032 283.409" fill="#75FAC8"/>
<path d="M412.023 337.691L401.103 358.452L396.212 367.751C389.504 380.508 373.986 385.78 360.894 379.748L292.295 355.848L332.247 264.643L400.783 301.167C413.938 308.179 418.962 324.498 412.023 337.691" fill="#75FAC8"/>
<path d="M372.216 382.24C370.444 382.24 368.662 382.066 366.89 381.708C364.862 381.299 362.851 380.651 360.894 379.748L310.892 362.327L292.295 355.848L332.247 264.643L400.783 301.167C409.93 306.042 415.146 315.418 415.142 325.112C415.14 329.362 414.138 333.671 412.023 337.691L410.823 339.972L401.572 357.56L401.103 358.452L396.212 367.751C391.383 376.935 381.986 382.24 372.216 382.24" fill="#056589"/>
<path d="M123.608 222.984C99.2428 276.931 89.1002 325.004 100.954 330.359C112.808 335.712 142.169 296.317 166.534 242.371C190.898 188.424 201.041 140.351 189.188 134.997C177.333 129.643 147.973 169.036 123.608 222.984" fill="#75FAC8"/>
<path d="M103.317 330.846C102.468 330.846 101.678 330.686 100.954 330.359C97.5913 328.839 95.999 323.883 95.999 316.328C95.9996 297.256 106.155 261.627 123.608 222.984C146.486 172.328 173.766 134.51 186.825 134.51C187.673 134.51 188.464 134.67 189.188 134.998C192.55 136.516 194.142 141.472 194.142 149.027C194.141 168.099 183.986 203.728 166.534 242.371C143.656 293.026 116.375 330.85 103.317 330.846" fill="#056589"/>
<path d="M417.909 367.689L399.317 361.849L410.823 339.972L424.768 348.64L417.909 367.689" fill="#75FAC8"/>
<path d="M403.137 363.049L399.317 361.849L403.137 363.049ZM412.492 341.009L410.823 339.971L412.492 341.009Z" fill="#575A5C"/>
<path d="M403.137 363.049L399.317 361.849L410.823 339.971L412.492 341.009L403.137 363.049Z" fill="#07475F"/>
<path d="M398.011 345.018C397.739 345.62 388.459 342.013 377.287 336.962C366.107 331.912 357.271 327.329 357.544 326.729C357.815 326.129 367.092 329.736 378.271 334.786C389.444 339.837 398.282 344.417 398.011 345.018Z" fill="#75FAC8"/>
<path d="M403.73 331.988C403.436 332.581 395.04 329.042 384.974 324.085C374.903 319.125 366.98 314.628 367.272 314.034C367.563 313.444 375.958 316.982 386.028 321.942C396.095 326.901 404.02 331.397 403.73 331.988" fill="#75FAC8"/>
<path d="M390.798 358.685C390.7 359.001 388.492 358.491 384.968 357.403C383.209 356.859 381.121 356.171 378.814 355.373C376.521 354.541 374.142 353.338 371.593 352.183C361.42 347.462 353.654 342.838 353.906 342.29C354.208 341.642 362.51 345.337 372.589 350.013C375.116 351.158 377.46 352.419 379.67 353.343C381.89 354.241 383.881 355.078 385.544 355.815C388.869 357.293 390.894 358.369 390.798 358.685Z" fill="#75FAC8"/>
<path d="M173.281 210.987C173.281 210.987 145.464 193.738 130.245 231.32C115.026 268.903 144.293 275.083 144.293 275.083C156.271 256.51 166 235.224 173.281 210.987Z" fill="#75FAC8"/>
<path d="M123.187 330.257C123.181 330.257 123.176 330.256 123.173 330.252C123.047 330.146 124.569 328.054 127.431 324.36C130.399 320.596 134.567 315.312 139.684 308.822C142.038 305.374 144.606 301.61 147.362 297.574C148.746 295.557 150.178 293.472 151.652 291.326C152.391 290.254 153.139 289.165 153.899 288.062C154.631 286.942 155.27 285.736 155.972 284.553C158.742 279.789 161.647 274.793 164.658 269.616C165.414 268.321 166.175 267.017 166.943 265.701C167.724 264.393 168.307 262.965 169.01 261.585C170.359 258.802 171.728 255.977 173.114 253.118C174.504 250.262 175.878 247.44 177.231 244.658C177.88 243.256 178.646 241.916 179.187 240.493C179.746 239.077 180.3 237.672 180.851 236.278C183.059 230.713 185.19 225.342 187.222 220.222C187.716 218.938 188.27 217.693 188.699 216.424C189.096 215.144 189.488 213.881 189.876 212.636C190.652 210.146 191.407 207.729 192.138 205.39C193.608 200.726 194.979 196.376 196.238 192.39C198.17 184.373 199.743 177.845 200.866 173.194C201.994 168.689 202.698 166.196 202.864 166.196C202.866 166.196 202.867 166.196 202.867 166.196C203.03 166.224 202.634 168.776 201.778 173.376C200.898 177.968 199.654 184.636 197.87 192.82C196.694 196.852 195.408 201.253 194.03 205.972C193.332 208.337 192.61 210.781 191.868 213.297C191.495 214.557 191.116 215.833 190.732 217.126C190.318 218.41 189.775 219.669 189.292 220.966C187.288 226.138 185.187 231.562 183.008 237.182C182.462 238.589 181.91 240.005 181.352 241.436C180.811 242.87 180.046 244.221 179.396 245.636C178.036 248.44 176.659 251.284 175.263 254.161C173.862 257.038 172.479 259.881 171.115 262.684C170.406 264.069 169.814 265.506 169.022 266.821C168.242 268.141 167.468 269.453 166.702 270.753C163.63 275.941 160.664 280.948 157.838 285.721C157.115 286.904 156.462 288.108 155.708 289.228C154.927 290.332 154.158 291.421 153.395 292.494C151.875 294.638 150.396 296.718 148.967 298.731C146.106 302.735 143.435 306.472 140.991 309.893C135.672 316.338 131.212 321.421 128.148 324.952C125.147 328.372 123.395 330.257 123.187 330.257" fill="#056589"/>
<path d="M296.589 398.854C297.697 397.361 298.501 396.005 299.09 394.808C298.834 395.365 298.553 395.94 298.245 396.533C297.849 397.296 297.366 398.065 296.805 398.841C296.733 398.844 296.661 398.849 296.589 398.854ZM300.072 392.456C300.87 390.11 300.78 388.794 301.118 388.792C301.12 388.792 301.122 388.79 301.124 388.79C300.908 389.901 300.568 391.12 300.072 392.456Z" fill="#8C8F8F"/>
<path d="M264.631 421.857C267.578 420.267 271.3 418.2 275.942 415.535C275.959 415.524 275.976 415.515 275.995 415.504C272.155 417.813 268.251 419.963 264.631 421.857ZM289.886 405.903C292.884 403.316 295.036 400.948 296.59 398.855C296.662 398.849 296.734 398.844 296.806 398.841C295.116 401.172 292.719 403.552 289.886 405.903" fill="#996152"/>
<path d="M276.593 445.563C271.835 445.562 267.233 443.095 263.801 439.733C260.047 436.05 257.457 431.371 254.92 426.766C254.92 426.766 257.497 425.707 264.631 421.857C268.251 419.962 272.155 417.813 275.995 415.503C281.965 412.071 286.473 408.845 289.885 405.902C292.719 403.551 295.116 401.171 296.805 398.841C297.367 398.065 297.849 397.295 298.245 396.533C298.553 395.939 298.835 395.365 299.091 394.807C299.52 393.938 299.835 393.151 300.072 392.455C300.568 391.119 300.908 389.901 301.124 388.79C301.875 388.703 302.583 388.663 303.263 388.663C306.456 388.663 309.015 389.551 312.408 390.613C313.884 391.075 315.428 391.731 316.232 393.051C317.603 395.302 316.017 398.41 313.667 399.601C312.201 400.343 310.568 400.553 308.908 400.553C307.907 400.553 306.896 400.477 305.908 400.397C308.08 403.707 310.281 407.081 311.384 410.885C312.489 414.689 312.347 419.054 310.071 422.294C308.487 424.549 305.707 426.007 303.013 426.007C301.837 426.007 300.676 425.729 299.64 425.118C299.389 428.249 298.715 431.521 296.635 433.874C295.301 435.383 293.243 436.345 291.275 436.345C290.171 436.345 289.096 436.042 288.193 435.363C288.137 440.622 283.18 444.969 277.947 445.495C277.495 445.541 277.044 445.563 276.593 445.563" fill="#056589"/>
<path d="M315.481 443.08C315.462 443.204 313.672 442.861 310.769 442.94C307.884 443.005 303.852 443.637 299.869 445.548C295.882 447.459 292.864 450.207 291.005 452.415C289.128 454.629 288.274 456.24 288.166 456.176C288.128 456.155 288.3 455.733 288.692 455.009C289.082 454.284 289.718 453.271 290.625 452.105C292.418 449.776 295.468 446.887 299.568 444.923C303.665 442.957 307.826 442.388 310.766 442.449C312.242 442.471 313.432 442.611 314.241 442.76C315.05 442.908 315.489 443.037 315.481 443.08" fill="#F68260"/>
<path d="M256.674 419.605C261.006 423.767 263.968 428.36 268.512 432.552C270.576 434.456 273.784 438.064 276.551 438.543C279.319 439.024 281.092 438.656 282.187 436.069C283.075 433.973 281.482 431.112 280.382 429.385C277.487 424.845 274.718 421.295 272.55 417.764C271.535 416.111 272.85 415.769 273.328 416.535C275.415 418.696 278.524 420.569 280.392 422.921C282.95 426.144 283.414 430.413 290.104 429.063C290.99 428.884 291.872 428.579 292.59 428.029C295.108 426.103 295.214 422.749 294.154 420.065C293.323 417.961 291.864 416.176 290.428 414.428C293.276 417.644 296.386 421.032 300.914 421.397C303.548 421.609 306.191 420.383 307.256 417.965C308.596 414.923 306.675 411.981 304.747 409.603C301.328 405.387 297.516 401.492 293.375 397.984C291.832 396.68 289.867 395.949 287.847 395.935C285.504 395.92 282.574 396.36 281.126 398.399C278.496 402.097 279.307 405.367 279.307 405.367C279.307 405.367 273.432 402.389 268.712 405.504C263.992 408.62 262.824 413.973 262.824 413.973L256.674 419.605" fill="#F8A58D"/>
<path d="M287.933 394.644C286.115 392.813 285.692 389.465 287.103 386.698C288.101 384.741 289.361 382.838 290.64 382.408C296.228 380.522 320.643 384.746 320.42 390.164C320.192 395.729 318.415 398.177 305.164 396.264C302.833 395.926 299.176 395.468 299.176 395.468L295.977 400.268L287.933 394.644" fill="#F8A58D"/>
<path d="M292.306 417.334C292.112 417.453 290.254 413.661 286.462 410.262C282.707 406.818 278.752 405.341 278.852 405.136C278.88 405.06 279.9 405.322 281.436 406.048C282.971 406.766 284.996 408.004 286.927 409.748C288.852 411.498 290.28 413.393 291.147 414.85C292.018 416.309 292.38 417.3 292.306 417.334Z" fill="#F68260"/>
<path d="M296.414 400.683C296.292 400.798 294.682 399.481 292.482 398.135C291.388 397.463 290.375 396.898 289.616 396.557C288.863 396.202 288.363 396.105 288.364 396.001C288.359 395.913 288.938 395.841 289.786 396.095C290.634 396.337 291.726 396.855 292.848 397.546C295.102 398.923 296.576 400.537 296.414 400.683" fill="#F68260"/>
<path d="M300.512 395.647C300.496 395.795 298.371 395.855 295.809 395.117C294.537 394.728 293.464 394.115 292.801 393.54C292.131 392.969 291.852 392.493 291.917 392.436C292.047 392.317 293.563 393.759 296.016 394.453C298.436 395.155 300.548 395.416 300.512 395.647" fill="#F68260"/>
<path d="M276.784 424.043C276.705 424.099 275.841 422.996 274.557 421.148C273.246 419.344 271.58 416.652 268.858 414.672C266.137 412.69 262.933 412.219 260.787 412.534C258.596 412.839 257.453 413.743 257.385 413.615C257.363 413.583 257.618 413.336 258.164 412.999C258.705 412.654 259.573 412.276 260.708 412.05C262.953 411.587 266.376 412.004 269.264 414.108C272.138 416.21 273.759 419.01 274.967 420.878C276.147 422.798 276.861 423.987 276.784 424.043" fill="#F68260"/>
<path d="M295.462 478.042C295.482 478.233 291.014 478.875 285.482 479.475C279.949 480.078 275.449 480.411 275.428 480.221C275.408 480.029 279.874 479.387 285.408 478.786C290.938 478.185 295.441 477.853 295.462 478.042Z" fill="#F68260"/>
<path d="M505.504 34.6107L507.01 37.3613L509.763 38.8667L507.01 40.372L505.504 43.124L503.999 40.372L501.247 38.8667L503.999 37.3613L505.504 34.6107Z" fill="#75FAC8"/>
<path d="M536.977 102.836L538.482 105.589L541.234 107.093L538.482 108.6L536.977 111.352L535.473 108.6L532.72 107.093L535.473 105.589L536.977 102.836Z" fill="#75FAC8"/>
<path d="M32.5337 284.862L34.0389 287.614L36.7905 289.12L34.0389 290.625L32.5337 293.377L31.0285 290.625L28.2764 289.12L31.0285 287.614L32.5337 284.862" fill="#75FAC8"/>
<path d="M464.212 51.5681L467.686 57.9228L474.042 61.3988L467.686 64.8748L464.212 71.2295L460.736 64.8748L454.381 61.3988L460.736 57.9228L464.212 51.5681Z" fill="#75FAC8"/>
<path d="M60.7434 241.615L64.2116 247.956L70.5527 251.424L64.2116 254.892L60.7434 261.233L57.2756 254.892L50.9346 251.424L57.2756 247.956L60.7434 241.615" fill="#75FAC8"/>
<path d="M545.54 392.906L549.008 399.246L555.35 402.714L549.008 406.183L545.54 412.523L542.072 406.183L535.729 402.714L542.072 399.246L545.54 392.906Z" fill="#75FAC8"/>
</svg>
