<svg width="22" height="20" viewBox="0 0 22 20" fill="none" xmlns="http://www.w3.org/2000/svg">
<path d="M11 20C10.6868 20 10.3848 19.8841 10.1495 19.6734C9.26077 18.8794 8.40392 18.1331 7.64793 17.4749L7.64407 17.4714C5.42766 15.5415 3.5137 13.8747 2.18201 12.2329C0.693375 10.3974 0 8.65709 0 6.75591C0 4.90876 0.619858 3.20464 1.74527 1.95726C2.88411 0.695126 4.44676 0 6.14587 0C7.4158 0 8.57881 0.410249 9.60251 1.21926C10.1191 1.62762 10.5874 2.1274 11 2.71036C11.4127 2.1274 11.8809 1.62762 12.3977 1.21926C13.4214 0.410249 14.5844 0 15.8543 0C17.5532 0 19.1161 0.695126 20.2549 1.95726C21.3803 3.20464 22 4.90876 22 6.75591C22 8.65709 21.3068 10.3974 19.8182 12.2327C18.4865 13.8747 16.5727 15.5413 14.3566 17.4711C13.5993 18.1304 12.7411 18.8778 11.8503 19.6738C11.6152 19.8841 11.313 20 11 20ZM6.14587 1.31685C4.81099 1.31685 3.5847 1.86121 2.6926 2.84979C1.78723 3.85329 1.28856 5.24046 1.28856 6.75591C1.28856 8.35489 1.87015 9.78493 3.17415 11.3927C4.43451 12.9467 6.30919 14.5791 8.47978 16.4693L8.48381 16.4727C9.24265 17.1336 10.1029 17.8827 10.9982 18.6826C11.8988 17.8812 12.7604 17.1308 13.5207 16.469C15.6911 14.5788 17.5657 12.9467 18.826 11.3927C20.1299 9.78493 20.7114 8.35489 20.7114 6.75591C20.7114 5.24046 20.2128 3.85329 19.3074 2.84979C18.4155 1.86121 17.189 1.31685 15.8543 1.31685C14.8764 1.31685 13.9786 1.63448 13.1859 2.26083C12.4794 2.81926 11.9873 3.52519 11.6987 4.01914C11.5504 4.27315 11.2892 4.42476 11 4.42476C10.7108 4.42476 10.4496 4.27315 10.3013 4.01914C10.0129 3.52519 9.52077 2.81926 8.81413 2.26083C8.02139 1.63448 7.12358 1.31685 6.14587 1.31685Z" fill="#484848"/>
</svg>
