<svg width="40" height="40" viewBox="0 0 35 39" fill="none" xmlns="http://www.w3.org/2000/svg">
<path d="M7.77783 17.5H11.6667V21.3889H7.77783V17.5ZM7.77783 25.2778H11.6667V29.1667H7.77783V25.2778ZM15.5556 17.5H19.4445V21.3889H15.5556V17.5ZM15.5556 25.2778H19.4445V29.1667H15.5556V25.2778ZM23.3334 17.5H27.2223V21.3889H23.3334V17.5ZM23.3334 25.2778H27.2223V29.1667H23.3334V25.2778Z" fill="white"/>
<path d="M3.88889 38.8889H31.1111C33.2558 38.8889 35 37.1447 35 35V7.77778C35 5.63306 33.2558 3.88889 31.1111 3.88889H27.2222V0H23.3333V3.88889H11.6667V0H7.77778V3.88889H3.88889C1.74417 3.88889 0 5.63306 0 7.77778V35C0 37.1447 1.74417 38.8889 3.88889 38.8889ZM31.1111 11.6667L31.1131 35H3.88889V11.6667H31.1111Z" fill="white"/>
</svg>
